<svg width="1440" height="437" viewBox="0 0 1440 437" fill="none" xmlns="http://www.w3.org/2000/svg">
<path d="M39.9463 276.7L4.28706 251.275L0 296.376L39.9463 276.7Z" fill="#B7E6ED"/>
<path d="M1115.02 85.2987H964.961C964.563 85.2987 964.169 85.377 963.802 85.5292C963.434 85.6812 963.101 85.9043 962.82 86.1855C962.539 86.4666 962.316 86.8003 962.164 87.1676C962.012 87.5349 961.933 87.9287 961.933 88.3262V166.378C961.933 166.936 962.088 167.483 962.379 167.959C962.67 168.434 963.086 168.82 963.584 169.074C964.08 169.328 964.638 169.439 965.193 169.396C965.75 169.353 966.283 169.158 966.736 168.831L978.611 160.237C979.128 159.863 979.749 159.662 980.386 159.662H1115.02C1115.82 159.662 1116.59 159.343 1117.16 158.776C1117.73 158.208 1118.05 157.438 1118.05 156.635V88.3262C1118.05 87.5233 1117.73 86.7532 1117.16 86.1855C1116.59 85.6177 1115.82 85.2987 1115.02 85.2987Z" fill="#B7E6ED"/>
<path d="M981.065 152.839L992.942 144.245C993.787 143.633 994.805 143.303 995.849 143.303H1130.48C1130.77 143.303 1131.05 143.188 1131.26 142.983C1131.46 142.777 1131.58 142.499 1131.58 142.209V73.9C1131.58 73.6098 1131.46 73.3314 1131.26 73.126C1131.05 72.9207 1130.77 72.8054 1130.48 72.8054H980.424C980.28 72.8054 980.137 72.8337 980.004 72.8887C979.872 72.9436 979.752 73.0243 979.65 73.126C979.547 73.2283 979.467 73.3492 979.412 73.4811C979.357 73.6131 979.329 73.7554 979.329 73.9V151.952C979.329 152.153 979.385 152.351 979.49 152.523C979.596 152.696 979.747 152.835 979.926 152.927C980.105 153.018 980.307 153.059 980.508 153.043C980.709 153.027 980.902 152.957 981.065 152.839ZM981.065 152.839L982.199 154.404" stroke="#1E4E54" stroke-width="3"/>
<path d="M1103.08 91.7441H997.269V93.989H1103.08V91.7441Z" fill="#1E4E54"/>
<path d="M1103.08 109.213H997.269V111.458H1103.08V109.213Z" fill="#1E4E54"/>
<path d="M1103.08 126.68H997.269V128.924H1103.08V126.68Z" fill="#1E4E54"/>
<path d="M261.254 212.066H122.96V63.7273H268.209L261.254 212.066Z" fill="#B7E6ED"/>
<path d="M166.605 226.149C166.605 226.149 165.156 203.648 161.969 200.751C158.783 197.853 123.147 164.921 138.792 151.98C138.792 151.98 146.613 148.89 147.483 155.554C148.352 162.217 159.361 167.432 163.708 163.955C168.053 160.479 167.474 135.273 157.043 139.329C146.613 143.385 138.502 152.065 140.24 138.888C141.978 125.712 155.016 123.394 164.286 126.581C164.286 126.581 148.353 84.2817 168.633 99.3474C168.633 99.3474 170.081 81.5602 183.119 96.1033C183.119 96.1033 187.754 82.8331 195.577 95.2911C203.399 107.749 228.315 185.781 225.418 226.149H166.605Z" fill="white"/>
<path d="M225.418 228.566H166.604C165.991 228.566 165.4 228.333 164.952 227.913C164.505 227.494 164.233 226.92 164.195 226.307C163.541 216.195 161.829 204.218 160.316 202.514C155.617 198.241 132.057 176.002 132.427 160.163C132.43 158.235 132.864 156.332 133.699 154.595C134.534 152.857 135.748 151.328 137.252 150.122C137.448 149.96 137.667 149.83 137.904 149.737C139.286 149.165 140.771 148.881 142.266 148.901C143.762 148.922 145.238 149.246 146.606 149.855C147.538 150.429 148.322 151.218 148.89 152.155C149.458 153.091 149.796 154.15 149.875 155.243C150.34 156.789 151.174 158.199 152.306 159.351C153.439 160.502 154.834 161.36 156.373 161.851C157.26 162.337 158.248 162.609 159.258 162.648C160.27 162.686 161.275 162.489 162.196 162.073C163.84 160.694 165.081 148.93 161.686 143.19C160.457 141.117 159.287 141.043 157.918 141.582C155.414 142.612 152.975 143.791 150.613 145.114C146.088 147.539 142.516 149.457 139.764 147.555C137.257 145.821 137.387 142.043 137.843 138.575C138.088 135.985 138.923 133.486 140.284 131.269C141.643 129.051 143.492 127.175 145.691 125.783C150.174 123.22 155.409 122.299 160.498 123.179C157.263 113.732 153.226 98.7191 158.528 94.7218C159.839 93.9979 161.333 93.6704 162.826 93.7791C164.32 93.888 165.75 94.4286 166.942 95.335C167.229 93.8121 167.876 92.3796 168.827 91.1566C169.778 89.9334 171.008 88.9553 172.413 88.3025C175.38 87.2965 178.689 88.5099 182.466 91.9916C183.07 90.8601 183.919 89.8773 184.951 89.1147C185.984 88.3521 187.172 87.8288 188.431 87.5825C191.619 87.221 194.715 89.3808 197.621 94.0082C206.092 107.501 230.748 185.614 227.825 226.325C227.783 226.934 227.51 227.505 227.063 227.919C226.615 228.336 226.028 228.566 225.418 228.566ZM168.857 223.738H223.139C224.904 184.07 201.407 109.12 193.531 96.5766C190.974 92.5024 189.411 92.3467 188.974 92.3798C187.636 92.5276 186.035 95.1038 185.396 96.9068C185.256 97.3017 185.015 97.6535 184.698 97.9277C184.381 98.2018 183.998 98.389 183.587 98.4707C183.176 98.5522 182.751 98.5256 182.354 98.3933C181.955 98.2611 181.6 98.0277 181.32 97.7163C176.653 92.5102 174.504 92.7004 173.957 92.8766C172.377 93.4062 171.247 97.0922 171.038 99.549C171.001 99.978 170.852 100.389 170.603 100.741C170.354 101.092 170.015 101.371 169.624 101.548C169.232 101.725 168.799 101.793 168.372 101.747C167.945 101.701 167.537 101.543 167.192 101.287C163.277 98.3812 161.656 98.4063 161.436 98.576C159.35 100.148 161.786 113.092 166.544 125.733C166.706 126.161 166.742 126.627 166.648 127.075C166.555 127.524 166.336 127.936 166.018 128.265C165.699 128.594 165.293 128.825 164.847 128.932C164.401 129.038 163.934 129.016 163.502 128.867C161.027 127.949 158.388 127.565 155.756 127.742C153.123 127.918 150.559 128.65 148.23 129.89C146.64 130.905 145.308 132.274 144.336 133.89C143.365 135.507 142.781 137.327 142.632 139.206C142.348 140.617 142.325 142.068 142.565 143.487C144.584 142.839 146.519 141.957 148.332 140.859C150.864 139.441 153.481 138.179 156.167 137.08C157.963 136.31 159.99 136.275 161.813 136.981C163.636 137.688 165.108 139.08 165.918 140.86C169.876 147.734 169.463 162.443 165.214 165.841C163.637 166.846 161.824 167.42 159.955 167.506C158.087 167.592 156.23 167.187 154.566 166.33C152.233 165.527 150.14 164.146 148.483 162.317C146.826 160.488 145.657 158.27 145.086 155.868C144.903 154.46 144.343 154.128 144.161 154.018C142.813 153.563 141.348 153.595 140.021 154.109C139.145 154.878 138.444 155.827 137.967 156.891C137.489 157.955 137.246 159.109 137.256 160.276C136.989 171.673 153.684 189.959 163.59 198.966C166.785 201.869 168.265 215.87 168.857 223.738Z" fill="#1E4E54"/>
<path d="M164.874 160.083C176.26 159.848 182.65 171.134 185.162 180.728L183.395 177.667C179.734 171.896 173.446 164.95 166.048 166.413C165.583 166.651 165.067 166.776 164.545 166.78C164.024 166.783 163.507 166.665 163.038 166.434C162.569 166.203 162.162 165.866 161.846 165.449C161.53 165.033 161.316 164.548 161.221 164.035C161.126 163.521 161.151 162.992 161.297 162.49C161.441 161.988 161.703 161.527 162.057 161.143C162.412 160.76 162.851 160.464 163.339 160.28C163.829 160.096 164.355 160.028 164.874 160.083Z" fill="#1E4E54"/>
<path d="M171.586 98.0423C175.415 110.042 180.061 121.93 181.972 134.403C178.011 122.56 171.445 111.689 165.701 100.651C165.493 100.26 165.367 99.8294 165.333 99.3874C165.298 98.9454 165.355 98.5011 165.499 98.082C165.643 97.6628 165.873 97.278 166.173 96.9515C166.472 96.6248 166.837 96.3636 167.242 96.184C167.647 96.0042 168.085 95.9098 168.528 95.9069C168.972 95.904 169.411 95.9926 169.82 96.1671C170.227 96.3415 170.594 96.5978 170.898 96.9204C171.202 97.2431 171.437 97.625 171.586 98.0423Z" fill="#1E4E54"/>
<path d="M186.131 94.9493C189.99 107.333 193.146 119.925 195.584 132.665C191.099 120.581 185.936 108.759 180.121 97.256C179.934 96.8548 179.832 96.4196 179.82 95.9772C179.809 95.5349 179.889 95.0947 180.054 94.6844C180.22 94.2742 180.469 93.9025 180.784 93.5924C181.1 93.2823 181.476 93.0405 181.89 92.8819C182.302 92.7233 182.744 92.6516 183.186 92.6708C183.628 92.6902 184.061 92.8001 184.459 92.9939C184.858 93.1878 185.211 93.4615 185.498 93.798C185.785 94.1343 186.002 94.5261 186.131 94.9493Z" fill="#1E4E54"/>
<path d="M166.008 124.701C168.591 128.771 171.894 132.966 172.124 137.9C171.215 135.764 169.788 133.888 167.969 132.444C166.269 130.892 164.473 129.446 162.595 128.115C162.064 127.74 161.703 127.17 161.593 126.53C161.483 125.89 161.631 125.232 162.006 124.701C162.234 124.383 162.534 124.123 162.882 123.944C163.23 123.765 163.615 123.672 164.007 123.672C164.397 123.672 164.784 123.765 165.132 123.944C165.48 124.123 165.78 124.383 166.008 124.701Z" fill="#1E4E54"/>
<path d="M248.971 229.369H104.386V74.5923H256.225L248.971 229.369ZM110.824 222.931H242.829L249.479 81.0306H110.824V222.931Z" fill="#1E4E54"/>
<path d="M180.506 373.409H63.1411V380.134H180.506V373.409Z" fill="#1E4E54"/>
<path d="M219.063 351.785H101.698V358.51H219.063V351.785Z" fill="#1E4E54"/>
<path d="M1217.18 248.416H1099.81V255.141H1217.18V248.416Z" fill="#1E4E54"/>
<path d="M1255.73 226.792H1138.37V233.517H1255.73V226.792Z" fill="#1E4E54"/>
<path d="M1358.82 89.8546L1323.16 64.4295L1318.87 109.53L1358.82 89.8546Z" fill="#9BEAC9"/>
<path d="M1046.71 398.635L1046.36 354.841L1007.33 377.85L1046.71 398.635Z" fill="#B7E6ED"/>
<path d="M371.993 54.1208L352.43 67.2876L374.336 77.3154L371.993 54.1208Z" fill="#9BEAC9"/>
<path d="M1310.23 338.899L1291.81 352.066L1312.43 362.094L1310.23 338.899Z" fill="#9BEAC9"/>
<path d="M1438.49 265.45L1425.83 274.957L1440 282.201L1438.49 265.45Z" fill="#B7E6ED"/>
<path d="M358.234 429.735L346.151 421.369L344.698 436.21L358.234 429.735Z" fill="#E6F0FB"/>
<g clip-path="url(#clip0_1_94)">
<path d="M457.96 166.13C457.96 74.3789 537.573 0 635.78 0C733.987 0 813.6 74.3789 813.6 166.13C813.6 257.881 733.987 332.259 635.78 332.259C600.837 332.384 566.573 322.666 536.939 304.233L536.947 304.248L464.486 354.534L458.305 176.063C458.097 172.774 457.96 169.468 457.96 166.13Z" fill="#E6F0FB"/>
<path d="M677.262 285.121C680.341 277.46 670.995 280.389 662.346 281.564L649.351 274.333C649.271 267.158 655.892 257.826 672.367 261.107C690.721 264.762 688.667 252.151 669.647 246.804C657.581 243.595 644.757 244.823 633.527 250.265C629.052 252.363 623.747 254.812 618.485 257.153L602.45 248.229L670.27 231.524L682.155 121.544L830.378 161.22L823.375 257.875C807.831 289.107 783.068 314.861 752.407 331.687L744.889 327.502C757.594 319.055 771.169 309.616 774.445 305.772C780.971 298.115 775.609 295.812 775.609 295.812C781.67 288.637 772.115 286.978 772.115 286.978C772.115 276.537 760.695 281.562 760.695 281.562C756.267 266.635 728.3 298.694 728.3 298.694C728.3 298.694 734.593 275.725 731.796 272.593C728.999 269.46 723.056 284.077 717.464 294.443C714.941 299.071 711.707 303.276 707.878 306.904L674.498 288.328C675.69 287.524 676.645 286.417 677.262 285.121Z" fill="#6ECEDA"/>
<path d="M752.403 333.619C752.072 333.619 751.744 333.535 751.455 333.372L743.939 329.189C743.648 329.026 743.405 328.794 743.231 328.511C743.057 328.229 742.96 327.908 742.947 327.577C742.934 327.246 743.006 326.917 743.156 326.623C743.306 326.327 743.531 326.077 743.807 325.892C764.663 312.026 771.173 306.615 772.961 304.517C775.71 301.293 775.853 299.526 775.692 298.756C775.639 298.506 775.533 298.268 775.377 298.064C775.223 297.859 775.026 297.689 774.799 297.568C774.53 297.437 774.295 297.249 774.112 297.015C773.927 296.782 773.797 296.51 773.731 296.22C773.667 295.933 773.669 295.635 773.735 295.35C773.803 295.063 773.935 294.794 774.121 294.566C775.361 293.098 775.886 291.857 775.599 291.071C775.152 289.851 772.787 289.056 771.777 288.88C771.326 288.803 770.918 288.568 770.623 288.22C770.329 287.871 770.169 287.431 770.168 286.976C770.276 286.219 770.193 285.446 769.928 284.73C769.664 284.011 769.223 283.37 768.65 282.864C766.66 281.562 762.701 282.798 761.473 283.33C761.22 283.441 760.948 283.496 760.671 283.494C760.395 283.491 760.124 283.428 759.873 283.313C759.624 283.196 759.401 283.03 759.22 282.822C759.04 282.615 758.907 282.37 758.828 282.107C758.246 280.144 757.345 279.737 756.719 279.6C751.04 278.397 737.196 291.446 729.763 299.961C729.475 300.293 729.082 300.518 728.65 300.597C728.216 300.675 727.769 300.606 727.381 300.397C726.993 300.191 726.687 299.86 726.514 299.458C726.34 299.056 726.309 298.606 726.424 298.184C728.813 290.519 730.191 282.577 730.524 274.557C727.681 278.642 725.223 282.981 723.184 287.517C721.859 290.174 720.504 292.886 719.172 295.357C716.558 300.167 713.199 304.535 709.216 308.3C708.916 308.585 708.531 308.768 708.119 308.821C707.708 308.872 707.288 308.791 706.926 308.59L673.548 290.013C673.266 289.856 673.028 289.633 672.856 289.361C672.682 289.09 672.582 288.78 672.558 288.46C672.536 288.14 672.594 287.818 672.728 287.526C672.862 287.233 673.067 286.979 673.325 286.786C674.229 286.188 674.963 285.366 675.454 284.403C676.103 282.787 675.878 282.314 675.876 282.31C675.201 281.429 669.766 282.332 666.847 282.816C665.454 283.048 664.019 283.286 662.604 283.478C662.187 283.533 661.764 283.452 661.394 283.249L648.401 276.018C648.103 275.851 647.854 275.61 647.678 275.318C647.505 275.025 647.411 274.693 647.408 274.353C647.411 272.116 647.913 269.906 648.876 267.885C649.837 265.862 651.235 264.076 652.972 262.654C656.258 259.942 662.359 257.141 672.746 259.21C679.781 260.611 682.834 259.345 683.105 258.217C683.562 256.327 679.279 251.521 669.118 248.663C657.502 245.576 645.158 246.764 634.353 252.011C629.865 254.116 624.549 256.571 619.276 258.917C618.997 259.038 618.697 259.093 618.395 259.08C618.093 259.067 617.798 258.985 617.533 258.839L601.5 249.916C601.16 249.726 600.885 249.439 600.711 249.092C600.537 248.747 600.472 248.356 600.523 247.97C600.576 247.586 600.742 247.226 601.002 246.937C601.262 246.649 601.603 246.444 601.982 246.351L668.481 229.97L680.222 121.335C680.253 121.058 680.343 120.79 680.485 120.55C680.63 120.311 680.824 120.105 681.055 119.947C681.287 119.79 681.551 119.684 681.827 119.637C682.103 119.59 682.387 119.603 682.658 119.675L830.88 159.351C831.315 159.467 831.696 159.732 831.958 160.098C832.218 160.464 832.344 160.91 832.311 161.358L825.308 258.012C825.291 258.257 825.225 258.499 825.117 258.72C809.451 290.344 784.396 316.405 753.35 333.372C753.06 333.535 752.735 333.619 752.403 333.619ZM748.598 327.352L752.401 329.469C782.217 312.938 806.297 287.796 821.462 257.358L828.322 162.67L683.841 123.997L672.197 231.73C672.155 232.125 671.992 232.496 671.73 232.794C671.469 233.094 671.121 233.304 670.733 233.399L607.689 248.928L618.578 254.99C623.535 252.776 628.483 250.492 632.696 248.515C644.349 242.867 657.656 241.599 670.173 244.942C681.099 248.014 688.126 253.977 686.881 259.124C686.509 260.653 684.349 265.465 671.983 263C663.093 261.236 658.088 263.453 655.45 265.632C653.135 267.529 651.658 270.254 651.338 273.221L662.721 279.556C663.887 279.386 665.06 279.192 666.208 279.002C672.111 278.021 676.77 277.248 678.902 279.885C679.442 280.778 679.74 281.796 679.77 282.84C679.797 283.884 679.554 284.916 679.061 285.837C678.746 286.599 678.309 287.307 677.767 287.932L707.552 304.508C710.799 301.258 713.561 297.561 715.749 293.528C717.063 291.09 718.397 288.416 719.706 285.797C724.661 275.87 727.392 270.668 730.52 270.252C731.026 270.188 731.542 270.25 732.016 270.434C732.492 270.619 732.913 270.919 733.244 271.306C735.547 273.883 734.009 283.407 732.062 291.769C738.995 284.66 750.485 274.281 757.545 275.822C758.453 276.019 759.306 276.42 760.04 276.99C760.774 277.56 761.369 278.287 761.782 279.117C763.232 278.574 764.779 278.337 766.326 278.425C767.872 278.51 769.384 278.918 770.764 279.62C771.716 280.28 772.501 281.151 773.06 282.164C773.616 283.178 773.929 284.306 773.975 285.459C775.117 285.742 776.182 286.272 777.094 287.014C778.007 287.756 778.741 288.69 779.247 289.748C779.55 290.711 779.62 291.733 779.448 292.727C779.278 293.721 778.871 294.663 778.265 295.47C778.851 296.148 779.263 296.958 779.464 297.83C779.629 299.529 779.397 301.245 778.782 302.841C778.167 304.436 777.189 305.867 775.923 307.021C773.237 310.171 764.05 317.006 748.598 327.352Z" fill="#1E4E54"/>
<path d="M759.95 6.68919L773.083 15.9199L758.381 22.9502L759.95 6.68919Z" fill="#6ECEDA"/>
<path d="M491.206 349.365L499.553 355.235L490.208 359.706L491.206 349.365Z" fill="#E6F0FB"/>
<path d="M880.305 241.305L899.112 228.342L901.369 251.336L880.305 241.305Z" fill="#E6F0FB"/>
<path d="M429.949 223.691L442.985 232.86L428.388 239.841L429.949 223.691Z" fill="#9BEAC9"/>
<path d="M809.146 283.496C809.546 283.496 809.935 283.374 810.263 283.145C810.589 282.917 810.836 282.593 810.973 282.22C811.147 281.738 811.123 281.206 810.904 280.742C810.686 280.278 810.29 279.92 809.805 279.744L670.934 229.707C670.449 229.533 669.916 229.557 669.449 229.775C668.983 229.992 668.622 230.385 668.446 230.868C668.272 231.35 668.298 231.882 668.516 232.346C668.736 232.81 669.129 233.168 669.614 233.344L808.486 283.381C808.698 283.458 808.921 283.498 809.146 283.496Z" fill="#1E4E54"/>
<path d="M802.586 244.496L809.143 166.575L690.285 133.627L684.691 206.947L802.586 244.496Z" fill="white"/>
<path d="M808.543 258.383L690.646 220.834C690.231 220.701 689.872 220.432 689.626 220.072C689.383 219.712 689.268 219.279 689.302 218.846L694.894 145.525C694.916 145.241 695.002 144.964 695.145 144.716C695.286 144.468 695.482 144.254 695.716 144.09C695.951 143.926 696.22 143.815 696.503 143.767C696.787 143.718 697.076 143.733 697.353 143.811L816.21 176.758C816.646 176.879 817.025 177.147 817.283 177.516C817.541 177.885 817.662 178.333 817.623 178.781L811.069 256.702C811.045 256.993 810.955 257.272 810.807 257.523C810.66 257.775 810.457 257.989 810.214 258.151C809.893 258.362 809.518 258.475 809.136 258.475C808.934 258.475 808.735 258.444 808.543 258.383ZM698.59 148.167L693.291 217.616L807.404 253.961L813.62 180.054L698.59 148.167Z" fill="#1E4E54"/>
<path d="M791.922 220.46C792.365 220.46 792.797 220.308 793.141 220.032C793.487 219.754 793.725 219.367 793.818 218.935C793.926 218.433 793.831 217.91 793.553 217.479C793.273 217.047 792.834 216.746 792.33 216.636L762.033 210.141C761.784 210.086 761.526 210.081 761.275 210.125C761.024 210.17 760.783 210.264 760.569 210.402C760.354 210.54 760.17 210.719 760.025 210.929C759.88 211.139 759.778 211.375 759.725 211.623C759.617 212.124 759.714 212.649 759.994 213.08C760.272 213.509 760.711 213.813 761.215 213.922L791.51 220.418C791.646 220.447 791.783 220.461 791.922 220.46Z" fill="#1E4E54"/>
<path d="M794.259 194.477C794.712 194.477 795.149 194.32 795.497 194.031C795.845 193.744 796.081 193.346 796.165 192.904C796.213 192.655 796.211 192.397 796.159 192.149C796.108 191.9 796.008 191.664 795.863 191.454C795.72 191.244 795.537 191.065 795.323 190.926C795.109 190.787 794.871 190.69 794.62 190.643L757.797 183.682C757.292 183.588 756.768 183.698 756.344 183.987C755.917 184.274 755.624 184.718 755.527 185.22C755.478 185.471 755.48 185.727 755.533 185.975C755.584 186.224 755.685 186.461 755.829 186.67C755.972 186.88 756.157 187.061 756.369 187.2C756.584 187.339 756.822 187.434 757.072 187.481L793.895 194.442C794.014 194.466 794.137 194.477 794.259 194.477Z" fill="#1E4E54"/>
<path d="M549.057 171.393C555.881 172.785 562.109 176.238 566.892 181.28C571.675 186.322 574.781 192.71 575.788 199.574C576.134 201.948 576.467 204.547 576.782 207.394C580.309 239.413 598.331 305.22 656.75 308.093C715.159 310.964 712.077 302.106 720.998 345.445C701.854 351.767 681.814 354.981 661.644 354.961C626.701 355.086 592.436 345.368 562.802 326.936L562.811 326.95L490.35 377.236L484.168 198.765C483.96 195.477 483.824 192.169 483.824 188.832V188.828C482.317 170.029 486.876 163.316 491.012 160.596C499.132 155.255 510.195 162.294 539.546 169.282C542.879 170.075 546.059 170.775 549.057 171.393Z" fill="#9BEAC9"/>
<path d="M490.345 379.167C490.044 379.167 489.747 379.096 489.477 378.963C489.164 378.807 488.9 378.572 488.711 378.277C488.523 377.985 488.417 377.647 488.405 377.3L482.224 198.828C481.991 195.184 481.877 191.895 481.877 188.83C480.637 173.411 483.345 163.317 489.938 158.981C496.179 154.867 503.502 157.059 516.79 161.036C522.91 162.867 530.529 165.147 539.993 167.399C543.306 168.187 546.466 168.883 549.445 169.497C556.651 170.99 563.226 174.647 568.279 179.975C573.331 185.304 576.621 192.046 577.704 199.295C578.056 201.687 578.391 204.309 578.707 207.182C580.468 223.155 592.505 302.996 656.84 306.16C666.702 306.644 674.919 306.796 681.521 306.918C714.568 307.529 715.331 308.19 722.34 342.346L722.894 345.054C722.99 345.518 722.911 346.001 722.675 346.41C722.437 346.819 722.056 347.13 721.606 347.278C702.265 353.667 682.017 356.915 661.641 356.893C626.776 357.012 592.571 347.441 562.873 329.26L491.457 378.82C491.131 379.047 490.743 379.167 490.345 379.167ZM497.812 160.643C495.785 160.572 493.785 161.118 492.077 162.207C486.757 165.707 484.629 174.612 485.756 188.674C485.761 191.812 485.873 195.022 486.103 198.64L492.164 373.615L561.544 325.468C561.857 325.199 562.247 325.039 562.659 325.007C563.07 324.976 563.481 325.079 563.831 325.296C593.157 343.535 627.064 353.148 661.641 353.026C681.023 353.046 700.29 350.047 718.743 344.142L718.533 343.119C712.014 311.348 712.014 311.348 681.448 310.783C674.82 310.663 666.57 310.509 656.649 310.023C589.165 306.704 576.666 224.124 574.847 207.603C574.538 204.783 574.206 202.204 573.862 199.852C572.896 193.39 569.96 187.377 565.454 182.626C560.947 177.876 555.086 174.615 548.66 173.285C545.643 172.664 542.445 171.959 539.09 171.16C529.516 168.881 521.84 166.585 515.672 164.74C509.916 162.631 503.915 161.254 497.812 160.643Z" fill="#1E4E54"/>
<path d="M562.814 326.948C562.814 326.948 543.956 320.157 523.447 247.301C523.447 247.301 514.358 307.233 537.78 344.321L562.814 326.948Z" fill="#1E4E54"/>
<path d="M703.783 310.374C709.437 306.101 714.101 300.67 717.46 294.443C723.052 284.077 728.995 269.46 731.792 272.593C734.589 275.725 728.296 298.696 728.296 298.696C728.296 298.696 756.263 266.635 760.691 281.562C760.691 281.562 772.111 276.537 772.111 286.978C772.111 286.978 781.666 288.637 775.607 295.812C775.607 295.812 780.967 298.115 774.441 305.772C767.916 313.428 720.555 343.274 720.551 343.276C715.834 320.291 714.375 312.913 703.783 310.374Z" fill="white"/>
<path d="M759.628 279.157L739.875 297.897L762.102 282.138L759.628 279.157Z" fill="#1E4E54"/>
<path d="M770.945 285.154L749.042 304.098L773.288 288.24L770.945 285.154Z" fill="#1E4E54"/>
<path d="M775.28 294.196L758.167 307.719L777.412 297.424L775.28 294.196Z" fill="#1E4E54"/>
<path d="M672.371 261.105C647.9 256.232 645.103 279.203 653.843 281.561C662.582 283.918 681.461 274.678 677.266 285.119C673.083 295.531 627.708 300.147 627.452 300.173C613.497 292.215 602.152 280.409 594.786 266.178C600.133 265.604 620.405 256.421 633.531 250.264C644.761 244.823 657.585 243.593 669.653 246.802C688.671 252.15 690.725 264.76 672.371 261.105Z" fill="white"/>
<path d="M720.563 345.209C720.268 345.209 719.977 345.144 719.712 345.016C719.444 344.886 719.21 344.696 719.027 344.462C718.846 344.226 718.72 343.954 718.659 343.663C713.803 319.991 712.331 314.408 703.338 312.256C702.916 312.154 702.538 311.913 702.268 311.571C701.998 311.231 701.852 310.809 701.852 310.376C701.854 310.063 701.929 309.758 702.074 309.482C702.218 309.206 702.427 308.969 702.683 308.79C708.079 304.683 712.538 299.482 715.76 293.529C717.074 291.093 718.408 288.42 719.715 285.801C724.672 275.871 727.403 270.672 730.531 270.255C731.037 270.191 731.551 270.254 732.027 270.438C732.501 270.621 732.924 270.921 733.253 271.308C735.556 273.885 734.02 283.41 732.073 291.773C739.006 284.664 750.496 274.283 757.556 275.826C758.464 276.023 759.317 276.422 760.051 276.992C760.783 277.562 761.38 278.289 761.792 279.119C763.241 278.576 764.79 278.34 766.336 278.426C767.883 278.514 769.395 278.92 770.775 279.622C771.727 280.283 772.512 281.153 773.069 282.167C773.627 283.18 773.94 284.307 773.986 285.463C775.128 285.744 776.193 286.276 777.105 287.018C778.016 287.758 778.752 288.692 779.258 289.75C779.561 290.713 779.629 291.735 779.459 292.731C779.289 293.725 778.882 294.664 778.276 295.474C778.862 296.152 779.272 296.962 779.474 297.832C779.64 299.533 779.408 301.249 778.793 302.845C778.178 304.44 777.198 305.871 775.933 307.024C769.175 314.952 721.815 344.815 721.43 345.007C721.161 345.14 720.863 345.209 720.563 345.209ZM707.79 309.649C716.062 313.212 718.084 321.605 721.901 340.142C735.816 331.32 767.988 310.369 772.97 304.522C775.721 301.295 775.864 299.527 775.701 298.758C775.65 298.508 775.542 298.272 775.388 298.067C775.234 297.861 775.035 297.693 774.808 297.572C774.54 297.44 774.306 297.25 774.121 297.018C773.938 296.784 773.808 296.512 773.742 296.223C773.678 295.936 773.678 295.638 773.746 295.351C773.814 295.065 773.946 294.798 774.132 294.569C775.372 293.1 775.897 291.859 775.609 291.073C775.163 289.854 772.798 289.059 771.788 288.884C771.337 288.805 770.929 288.571 770.634 288.222C770.341 287.875 770.179 287.433 770.179 286.978C770.287 286.221 770.204 285.45 769.939 284.731C769.673 284.015 769.234 283.374 768.659 282.866C766.67 281.564 762.712 282.8 761.482 283.332C761.231 283.443 760.957 283.5 760.682 283.496C760.406 283.494 760.133 283.432 759.884 283.315C759.633 283.2 759.412 283.034 759.233 282.825C759.051 282.617 758.918 282.374 758.839 282.111C758.257 280.146 757.356 279.739 756.73 279.603C751.051 278.401 737.207 291.448 729.774 299.964C729.486 300.295 729.093 300.52 728.659 300.598C728.227 300.679 727.778 300.608 727.392 300.399C727.004 300.193 726.698 299.862 726.525 299.46C726.351 299.058 726.318 298.61 726.433 298.186C728.824 290.521 730.202 282.579 730.535 274.559C727.69 278.646 725.234 282.984 723.195 287.52C721.868 290.178 720.515 292.888 719.181 295.361C716.248 300.746 712.394 305.582 707.79 309.649Z" fill="#1E4E54"/>
<path d="M627.454 302.106C627.132 302.106 626.815 302.026 626.533 301.876C612.23 293.767 600.607 281.689 593.084 267.116C592.928 266.836 592.846 266.523 592.84 266.204C592.837 265.886 592.912 265.569 593.06 265.288C593.207 265.005 593.423 264.762 593.688 264.583C593.952 264.403 594.257 264.29 594.574 264.255C598.341 263.85 612.239 258.111 632.702 248.515C644.354 242.867 657.662 241.599 670.176 244.942C681.104 248.014 688.129 253.977 686.886 259.124C686.515 260.653 684.353 265.465 671.989 263C659.053 260.43 652.892 266.145 651.548 271.831C650.662 275.575 651.894 279.031 654.35 279.695C658.317 280.181 662.34 279.947 666.224 279.006C672.117 278.022 676.771 277.244 678.908 279.885C679.448 280.778 679.746 281.796 679.773 282.84C679.801 283.884 679.557 284.916 679.067 285.837C674.687 296.739 635.471 301.293 627.655 302.093C627.588 302.103 627.522 302.106 627.454 302.106ZM597.764 267.49C604.784 280.269 615.188 290.887 627.848 298.188C645.09 296.364 672.774 291.088 675.459 284.401C676.105 282.791 675.884 282.315 675.882 282.312C675.195 281.429 669.774 282.334 666.865 282.82C662.439 283.904 657.841 284.11 653.333 283.425C648.769 282.195 646.377 276.827 647.766 270.944C649.644 263.002 658.101 256.302 672.75 259.21C679.784 260.609 682.839 259.345 683.11 258.217C683.568 256.327 679.285 251.521 669.122 248.661C657.506 245.574 645.162 246.764 634.357 252.011C622.468 257.868 610.252 263.036 597.764 267.49Z" fill="#1E4E54"/>
<path d="M567.873 102.724L567.952 102.956L568.108 103.613L568.223 104.154C569.149 108.381 569.526 112.709 569.349 117.032C569.272 117.921 569.193 118.849 569.078 119.816C567.835 130.528 562.008 142.864 542.431 146.151C542.431 146.151 537.964 162.006 539.557 169.276C539.557 169.276 508.367 177.204 494.655 162.315C494.655 162.315 507.629 145.764 505.726 130.218C505.726 130.218 505.841 125.268 506.463 118.849V118.54C506.812 115.253 507.279 111.618 507.939 108.06V108.021C508.134 106.9 508.367 105.856 508.6 104.773C508.672 104.446 508.763 104.123 508.872 103.806V103.768C509.105 102.685 509.416 101.641 509.726 100.597C509.767 100.554 509.793 100.5 509.803 100.442C509.997 100.133 510.191 99.8232 510.386 99.5524L510.929 98.7406L514.348 93.7519C514.425 93.6358 514.542 93.4812 514.62 93.3652C515.358 92.2825 516.134 91.2382 516.911 90.1942H516.95L516.989 90.1556C517.771 89.8928 518.536 89.5828 519.281 89.2274C520.484 88.6862 522.077 87.9128 523.825 86.9073L523.864 86.8685C525.283 86.0251 526.658 85.1086 527.981 84.1228C532.102 81.0739 535.696 77.3776 538.624 73.1789C538.779 72.9379 538.948 72.7056 539.129 72.4828C539.479 71.9415 539.828 71.3614 540.177 70.7814V70.7426C541.282 68.9247 542.243 67.0242 543.052 65.0581C543.596 63.8209 544.101 62.5059 544.567 61.1137V61.075C547.014 59.0253 549.538 57.0147 552.102 55.1198C552.529 55.6612 552.957 56.28 553.422 56.9373L553.462 56.9759V57.0147C553.889 57.7493 554.355 58.5228 554.821 59.3735C559.998 69.8164 562.821 81.259 563.095 92.9011C563.095 92.9011 578.711 93.8678 567.873 102.724Z" fill="white"/>
<path d="M521.349 173.347C511.637 173.347 500.35 171.36 493.221 163.621C492.91 163.284 492.73 162.848 492.712 162.391C492.693 161.934 492.838 161.485 493.12 161.124C493.245 160.966 505.577 145.005 503.796 130.452C503.787 129.969 503.906 125.078 504.528 118.662C504.957 114.312 505.446 110.835 506.027 107.708C506.197 106.687 506.4 105.745 506.609 104.785L506.7 104.366C506.806 103.932 506.886 103.62 506.973 103.349C507.212 102.246 507.525 101.179 507.842 100.114C507.88 99.9852 507.93 99.86 507.992 99.7401C508.035 99.6253 508.09 99.5149 508.157 99.4113C508.399 99.0262 508.604 98.7051 508.809 98.422L512.743 92.661L514.618 93.3633L513.012 92.2778C513.744 91.2033 514.514 90.1647 515.284 89.1281C515.416 88.9554 515.572 88.8021 515.747 88.6731C515.945 88.5106 516.171 88.3858 516.414 88.3048C517.115 88.0694 517.801 87.7905 518.466 87.4703C519.602 86.9586 521.082 86.2411 522.707 85.3158C522.755 85.2778 522.805 85.2431 522.857 85.212C524.219 84.4039 525.538 83.5254 526.808 82.5798C530.764 79.6557 534.216 76.1091 537.027 72.0793C537.214 71.788 537.418 71.508 537.639 71.241C537.798 70.9634 538.092 70.4763 538.394 69.9796C538.428 69.8988 538.467 69.8206 538.512 69.7455C539.565 68.0137 540.481 66.2024 541.25 64.3282C541.781 63.1216 542.254 61.8906 542.694 60.5895C542.794 60.2019 543.011 59.8541 543.316 59.5924C545.948 57.3889 548.514 55.3611 550.944 53.5653C551.35 53.2654 551.858 53.1353 552.36 53.2023C552.861 53.2692 553.317 53.5282 553.629 53.924C554.011 54.4093 554.396 54.9513 554.802 55.529C555.02 55.7405 555.185 56.0007 555.283 56.2882L555.494 56.6449C555.826 57.2135 556.175 57.8082 556.524 58.4445C561.594 68.638 564.454 79.7792 564.918 91.1447C567.64 91.5281 572.354 92.6628 573.428 95.9673C574.424 99.0339 571.777 101.881 570.047 103.418L570.121 103.75C571.083 108.14 571.475 112.634 571.287 117.123C571.188 118.269 571.113 119.138 571.005 120.042C569.773 130.652 564.059 143.979 543.985 147.833C542.665 152.867 540.329 163.732 541.451 168.862C541.559 169.352 541.472 169.864 541.208 170.29C540.943 170.716 540.522 171.024 540.034 171.147C533.91 172.583 527.642 173.321 521.349 173.347ZM497.202 162.127C508.612 172.701 531.035 169.07 537.372 167.777C537.395 160.281 538.468 152.826 540.56 145.626C540.66 145.273 540.858 144.956 541.132 144.711C541.406 144.466 541.744 144.303 542.108 144.242C557.117 141.723 565.542 133.43 567.146 119.593C567.251 118.725 567.32 117.896 567.391 117.097C567.582 112.891 567.221 108.677 566.321 104.563L566.058 103.398C565.961 103.017 565.964 102.617 566.065 102.237C566.167 101.857 566.364 101.509 566.637 101.226C569.392 98.9776 569.877 97.6104 569.731 97.1574C569.374 96.0489 565.866 95.0142 562.97 94.8294C562.499 94.7991 562.054 94.5989 561.72 94.2665C561.386 93.9339 561.186 93.4916 561.155 93.0223C560.83 81.6722 558.09 70.52 553.117 60.3013C552.785 59.699 552.455 59.1344 552.141 58.598L551.78 57.9825L551.758 57.941L551.691 57.8486C549.933 59.1873 548.11 60.6429 546.25 62.1912C545.808 63.4676 545.334 64.6811 544.829 65.8317C544.019 67.8024 543.061 69.7093 541.962 71.536C541.927 71.62 541.887 71.7015 541.84 71.7796C541.427 72.4631 541.095 73.0106 540.763 73.5262C540.478 73.8888 540.37 74.0549 540.26 74.221C537.205 78.6141 533.45 82.4811 529.142 85.6695C527.811 86.6638 526.428 87.5891 525 88.4413C524.935 88.4925 524.867 88.5393 524.795 88.581C523.278 89.4514 521.693 90.2616 520.08 90.9884C519.301 91.3472 518.641 91.6191 518.125 91.8099C517.454 92.7144 516.826 93.5697 516.225 94.4496L515.952 94.8406L512.003 100.622C511.819 100.877 511.673 101.109 511.529 101.338C511.25 102.276 510.99 103.166 510.789 104.081C510.769 104.221 510.735 104.357 510.687 104.489C510.621 104.676 510.568 104.866 510.527 105.06L510.406 105.601C510.209 106.51 510.015 107.401 509.85 108.351C509.285 111.44 508.809 114.82 508.392 118.744C507.787 125.301 507.665 130.214 507.665 130.264C509.33 143.715 500.324 157.735 497.202 162.127Z" fill="#1E4E54"/>
<path d="M554.512 70.4138C550.588 67.0383 543.016 70.3288 544.008 75.8008C547.784 74.5949 551.333 72.7747 554.512 70.4138Z" fill="#1E4E54"/>
<path d="M552.274 88.8079C552.958 88.8078 553.613 88.5375 554.096 88.0563C554.579 87.5751 554.851 86.9226 554.852 86.2422V79.288C554.851 78.6075 554.579 77.9551 554.096 77.4739C553.613 76.9927 552.958 76.7224 552.274 76.7222C551.591 76.7224 550.935 76.9927 550.452 77.4739C549.968 77.9551 549.697 78.6075 549.697 79.288V86.2419C549.697 86.9224 549.968 87.5751 550.452 88.0563C550.935 88.5375 551.591 88.8078 552.274 88.8079Z" fill="#1E4E54"/>
<path d="M514.704 98.122C515.053 104.348 511.324 117.341 506.469 118.54C505.757 118.65 505.03 118.603 504.339 118.403C503.647 118.202 503.009 117.853 502.468 117.38C501.884 117.01 501.348 116.569 500.875 116.065C504.764 108.282 509.272 100.821 514.354 93.7521C514.287 94.7232 514.352 95.6988 514.548 96.6524C514.645 97.1365 514.697 97.6285 514.704 98.122Z" fill="#1E4E54"/>
<path d="M554.514 54.3053C554.377 55.2585 554.003 56.1625 553.426 56.935C553.379 56.9794 553.339 57.0318 553.31 57.0898V57.1283C550.979 60.3379 545.735 64.2825 540.958 70.083C540.336 70.8563 539.715 71.6299 539.132 72.4806C538.951 72.7034 538.783 72.9357 538.628 73.1768C535.7 77.3754 532.105 81.0717 527.985 84.1206C526.661 85.1064 525.287 86.0225 523.867 86.8661L523.829 86.9049C522.081 87.9102 520.488 88.6838 519.284 89.2252C518.54 89.5806 517.775 89.8906 516.992 90.1532C519.944 86.2088 523.052 82.4191 526.392 78.7454C531.982 72.4064 538.061 66.5107 544.571 61.1115V61.0728C547.017 59.0231 549.542 57.0125 552.106 55.1174C552.883 54.4988 553.698 53.9186 554.475 53.3385C554.522 53.6585 554.535 53.9825 554.514 54.3053Z" fill="#1E4E54"/>
<path d="M569.434 114.362C569.434 115.213 569.394 116.103 569.355 117.031C569.279 117.92 569.2 118.848 569.085 119.815C567.648 130.024 561.626 141.819 542.438 146.15C528.44 146.092 515.734 141.716 510.859 133.891C507.578 127.808 505.296 121.241 504.102 114.44C503.941 113.582 503.826 112.87 503.752 112.39V112.352C503.681 111.665 503.733 110.971 503.906 110.302C503.921 110.287 503.932 110.269 503.939 110.249C503.946 110.229 503.949 110.207 503.946 110.186C504.226 109.261 504.718 108.414 505.383 107.711C505.382 107.706 505.384 107.701 505.386 107.696C505.387 107.691 505.39 107.687 505.394 107.684C505.398 107.68 505.402 107.677 505.406 107.675C505.411 107.673 505.416 107.672 505.421 107.672C506.125 106.978 506.865 106.32 507.636 105.7L507.675 105.662C507.986 105.391 508.257 105.082 508.607 104.772C510.084 103.315 511.317 101.63 512.258 99.7836C512.746 98.8766 513.162 97.9326 513.501 96.9607V96.922C513.819 96.1389 514.091 95.3384 514.317 94.5244V94.4856C514.433 94.0989 514.55 93.7124 514.628 93.3643C515.366 92.2816 516.142 91.2373 516.919 90.1932H516.958L516.996 90.1545C519.949 86.21 523.056 82.4206 526.396 78.7468C527.096 78.6695 527.834 78.592 528.649 78.5533H528.688C528.533 79.7907 528.338 80.9898 528.222 82.1112C528.109 82.7768 528.031 83.4479 527.989 84.1219C525.969 101.369 527.912 106.474 530.436 107.441C534.127 108.871 537.389 100.905 547.566 99.4356C554.5 98.9837 561.447 100.108 567.88 102.722L567.959 102.955L568.114 103.612L568.23 104.153C569.042 107.496 569.447 110.924 569.434 114.362Z" fill="#1E4E54"/>
<path d="M554.263 116.546C550.284 114.187 549.18 114.331 545.669 112.11C543.012 117.329 551.258 121.171 554.263 116.546Z" fill="#1E4E54"/>
<path d="M490.35 380.134C489.898 380.132 489.452 380.028 489.047 379.827C488.579 379.593 488.182 379.239 487.899 378.8C487.616 378.361 487.457 377.855 487.439 377.333L481.258 198.861C481.026 195.208 480.913 191.9 480.913 188.83C480.913 95.6271 561.988 19.7999 661.645 19.7999C761.303 19.7999 842.38 95.627 842.38 188.83C842.38 282.032 761.303 357.86 661.645 357.86C626.819 357.977 592.641 348.477 562.912 330.415L492.015 379.612C491.527 379.951 490.946 380.134 490.35 380.134ZM661.645 25.6004C565.201 25.6004 486.739 98.8259 486.739 188.83C486.739 191.78 486.849 194.969 487.077 198.582L493.077 371.804L560.964 324.693C561.436 324.309 562.016 324.081 562.625 324.042C563.233 324.004 563.838 324.156 564.355 324.477C593.525 342.62 627.252 352.182 661.645 352.059C758.088 352.059 836.554 278.834 836.554 188.83C836.554 98.8256 758.088 25.6004 661.645 25.6004Z" fill="#1E4E54"/>
</g>
<defs>
<clipPath id="clip0_1_94">
<rect width="518.013" height="380.134" fill="white" transform="translate(383.356)"/>
</clipPath>
</defs>
</svg>
