<svg width="176" height="176" viewBox="0 0 176 176" fill="none" xmlns="http://www.w3.org/2000/svg">
<circle cx="88" cy="88" r="84" fill="white" stroke="#1E5DEB" stroke-width="8"/>
<path d="M73.3335 69.0066V106.993C73.3335 109.89 76.5235 111.65 78.9802 110.073L108.827 91.08C109.349 90.7493 109.78 90.2918 110.078 89.7501C110.376 89.2084 110.533 88.6 110.533 87.9816C110.533 87.3633 110.376 86.7549 110.078 86.2132C109.78 85.6715 109.349 85.214 108.827 84.8833L78.9802 65.9266C78.4271 65.5689 77.7878 65.3671 77.1296 65.3425C76.4714 65.3179 75.8188 65.4714 75.2405 65.7868C74.6623 66.1022 74.1799 66.5678 73.8443 67.1345C73.5087 67.7012 73.3322 68.348 73.3335 69.0066Z" fill="#1E5DEB"/>
</svg>
