<svg width="728" height="520" viewBox="0 0 728 520" fill="none" xmlns="http://www.w3.org/2000/svg">
<rect width="728" height="520" rx="22" fill="white"/>
<line y1="-0.5" x2="728" y2="-0.5" transform="matrix(1 -3.49442e-05 2.59373e-05 1 0 95.1785)" stroke="#E4E4E4"/>
<line x1="124.5" y1="95.1785" x2="124.5" y2="511.875" stroke="#E4E4E4"/>
<ellipse cx="46" cy="47.5894" rx="7" ry="8.125" fill="#E1E1E1"/>
<ellipse cx="71" cy="47.5894" rx="7" ry="8.125" fill="#E1E1E1"/>
<ellipse cx="96" cy="47.5894" rx="7" ry="8.125" fill="#E1E1E1"/>
<line x1="45" y1="151.857" x2="78" y2="151.857" stroke="#E1E1E1" stroke-width="12" stroke-linecap="round"/>
<line x1="45" y1="204.089" x2="88" y2="204.089" stroke="#E1E1E1" stroke-width="12" stroke-linecap="round"/>
<line x1="45" y1="256.322" x2="68" y2="256.322" stroke="#E1E1E1" stroke-width="12" stroke-linecap="round"/>
<path d="M175.52 248V217.508H195.936V223.272H182.384V229.652H194.44V235.416H182.384V248H175.52ZM206.902 248H200.346V224.856H206.902V248ZM207.518 218.168C207.518 219.371 207.122 220.324 206.33 221.028C205.567 221.703 204.658 222.04 203.602 222.04C202.546 222.04 201.622 221.703 200.83 221.028C200.067 220.324 199.686 219.371 199.686 218.168C199.686 216.965 200.067 216.027 200.83 215.352C201.622 214.648 202.546 214.296 203.602 214.296C204.658 214.296 205.567 214.648 206.33 215.352C207.122 216.027 207.518 216.965 207.518 218.168ZM213.064 225.648C214.179 225.325 215.616 225.032 217.376 224.768C219.136 224.475 220.984 224.328 222.92 224.328C224.886 224.328 226.514 224.592 227.804 225.12C229.124 225.619 230.166 226.337 230.928 227.276C231.691 228.215 232.234 229.329 232.556 230.62C232.879 231.911 233.04 233.348 233.04 234.932V248H226.484V235.724C226.484 233.612 226.206 232.116 225.648 231.236C225.091 230.356 224.05 229.916 222.524 229.916C222.055 229.916 221.556 229.945 221.028 230.004C220.5 230.033 220.031 230.077 219.62 230.136V248H213.064V225.648ZM245.531 248H238.975V224.856H245.531V248ZM246.147 218.168C246.147 219.371 245.751 220.324 244.959 221.028C244.196 221.703 243.287 222.04 242.231 222.04C241.175 222.04 240.251 221.703 239.459 221.028C238.696 220.324 238.315 219.371 238.315 218.168C238.315 216.965 238.696 216.027 239.459 215.352C240.251 214.648 241.175 214.296 242.231 214.296C243.287 214.296 244.196 214.648 244.959 215.352C245.751 216.027 246.147 216.965 246.147 218.168ZM261.725 213.856C262.957 213.856 264.087 213.988 265.113 214.252C266.14 214.487 266.932 214.721 267.489 214.956L266.213 220.192C265.627 219.928 264.981 219.737 264.277 219.62C263.603 219.473 262.972 219.4 262.385 219.4C261.593 219.4 260.919 219.517 260.361 219.752C259.833 219.957 259.408 220.251 259.085 220.632C258.792 221.013 258.572 221.468 258.425 221.996C258.308 222.524 258.249 223.096 258.249 223.712V224.856H266.345V230.312H258.249V248H251.693V223.624C251.693 220.632 252.529 218.256 254.201 216.496C255.903 214.736 258.411 213.856 261.725 213.856ZM292.007 224.856C290.687 229.315 289.308 233.495 287.871 237.396C286.434 241.297 284.864 245.081 283.163 248.748C282.547 250.068 281.931 251.183 281.315 252.092C280.699 253.031 280.024 253.793 279.291 254.38C278.558 254.996 277.722 255.436 276.783 255.7C275.874 255.993 274.803 256.14 273.571 256.14C272.544 256.14 271.591 256.037 270.711 255.832C269.86 255.656 269.156 255.451 268.599 255.216L269.743 249.98C270.418 250.215 271.019 250.376 271.547 250.464C272.075 250.552 272.632 250.596 273.219 250.596C274.392 250.596 275.287 250.273 275.903 249.628C276.548 249.012 277.091 248.147 277.531 247.032C276.035 244.099 274.539 240.813 273.043 237.176C271.547 233.509 270.139 229.403 268.819 224.856H275.771C276.064 226 276.402 227.247 276.783 228.596C277.194 229.916 277.619 231.265 278.059 232.644C278.499 233.993 278.939 235.313 279.379 236.604C279.848 237.895 280.288 239.068 280.699 240.124C281.08 239.068 281.476 237.895 281.887 236.604C282.298 235.313 282.694 233.993 283.075 232.644C283.486 231.265 283.867 229.916 284.219 228.596C284.6 227.247 284.938 226 285.231 224.856H292.007ZM314.936 243.424C315.581 243.424 316.197 243.409 316.784 243.38C317.37 243.351 317.84 243.307 318.192 243.248V238.276C317.928 238.217 317.532 238.159 317.004 238.1C316.476 238.041 315.992 238.012 315.552 238.012C314.936 238.012 314.349 238.056 313.792 238.144C313.264 238.203 312.794 238.335 312.384 238.54C311.973 238.745 311.65 239.024 311.416 239.376C311.181 239.728 311.064 240.168 311.064 240.696C311.064 241.723 311.401 242.441 312.076 242.852C312.78 243.233 313.733 243.424 314.936 243.424ZM314.408 224.24C316.344 224.24 317.957 224.46 319.248 224.9C320.538 225.34 321.565 225.971 322.328 226.792C323.12 227.613 323.677 228.611 324 229.784C324.322 230.957 324.484 232.263 324.484 233.7V247.34C323.545 247.545 322.24 247.78 320.568 248.044C318.896 248.337 316.872 248.484 314.496 248.484C313 248.484 311.636 248.352 310.404 248.088C309.201 247.824 308.16 247.399 307.28 246.812C306.4 246.196 305.725 245.404 305.256 244.436C304.786 243.468 304.552 242.28 304.552 240.872C304.552 239.523 304.816 238.379 305.344 237.44C305.901 236.501 306.634 235.753 307.544 235.196C308.453 234.639 309.494 234.243 310.668 234.008C311.841 233.744 313.058 233.612 314.32 233.612C315.17 233.612 315.918 233.656 316.564 233.744C317.238 233.803 317.781 233.891 318.192 234.008V233.392C318.192 232.277 317.854 231.383 317.18 230.708C316.505 230.033 315.332 229.696 313.66 229.696C312.545 229.696 311.445 229.784 310.36 229.96C309.274 230.107 308.336 230.327 307.544 230.62L306.708 225.34C307.089 225.223 307.558 225.105 308.116 224.988C308.702 224.841 309.333 224.724 310.008 224.636C310.682 224.519 311.386 224.431 312.12 224.372C312.882 224.284 313.645 224.24 314.408 224.24ZM345.24 236.604C345.24 234.58 344.785 232.967 343.876 231.764C342.967 230.532 341.617 229.916 339.828 229.916C339.241 229.916 338.699 229.945 338.2 230.004C337.701 230.033 337.291 230.077 336.968 230.136V241.972C337.379 242.236 337.907 242.456 338.552 242.632C339.227 242.808 339.901 242.896 340.576 242.896C343.685 242.896 345.24 240.799 345.24 236.604ZM351.928 236.428C351.928 238.217 351.708 239.845 351.268 241.312C350.828 242.779 350.183 244.04 349.332 245.096C348.481 246.152 347.425 246.973 346.164 247.56C344.903 248.147 343.451 248.44 341.808 248.44C340.899 248.44 340.048 248.352 339.256 248.176C338.464 248 337.701 247.751 336.968 247.428V256.14H330.412V225.648C330.999 225.472 331.673 225.311 332.436 225.164C333.199 224.988 333.991 224.841 334.812 224.724C335.663 224.607 336.513 224.519 337.364 224.46C338.244 224.372 339.08 224.328 339.872 224.328C341.779 224.328 343.48 224.621 344.976 225.208C346.472 225.765 347.733 226.572 348.76 227.628C349.787 228.655 350.564 229.916 351.092 231.412C351.649 232.908 351.928 234.58 351.928 236.428ZM371.795 236.604C371.795 234.58 371.34 232.967 370.431 231.764C369.521 230.532 368.172 229.916 366.383 229.916C365.796 229.916 365.253 229.945 364.755 230.004C364.256 230.033 363.845 230.077 363.523 230.136V241.972C363.933 242.236 364.461 242.456 365.107 242.632C365.781 242.808 366.456 242.896 367.131 242.896C370.24 242.896 371.795 240.799 371.795 236.604ZM378.483 236.428C378.483 238.217 378.263 239.845 377.823 241.312C377.383 242.779 376.737 244.04 375.887 245.096C375.036 246.152 373.98 246.973 372.719 247.56C371.457 248.147 370.005 248.44 368.363 248.44C367.453 248.44 366.603 248.352 365.811 248.176C365.019 248 364.256 247.751 363.523 247.428V256.14H356.967V225.648C357.553 225.472 358.228 225.311 358.991 225.164C359.753 224.988 360.545 224.841 361.367 224.724C362.217 224.607 363.068 224.519 363.919 224.46C364.799 224.372 365.635 224.328 366.427 224.328C368.333 224.328 370.035 224.621 371.531 225.208C373.027 225.765 374.288 226.572 375.315 227.628C376.341 228.655 377.119 229.916 377.647 231.412C378.204 232.908 378.483 234.58 378.483 236.428ZM409.404 222.788C406.206 222.788 403.889 223.683 402.452 225.472C401.044 227.232 400.34 229.652 400.34 232.732C400.34 234.228 400.516 235.592 400.868 236.824C401.22 238.027 401.748 239.068 402.452 239.948C403.156 240.828 404.036 241.517 405.092 242.016C406.148 242.485 407.38 242.72 408.788 242.72C409.55 242.72 410.196 242.705 410.724 242.676C411.281 242.647 411.765 242.588 412.176 242.5V231.896H419.04V246.988C418.218 247.311 416.898 247.648 415.08 248C413.261 248.381 411.017 248.572 408.348 248.572C406.06 248.572 403.977 248.22 402.1 247.516C400.252 246.812 398.668 245.785 397.348 244.436C396.028 243.087 395.001 241.429 394.268 239.464C393.564 237.499 393.212 235.255 393.212 232.732C393.212 230.18 393.608 227.921 394.4 225.956C395.192 223.991 396.277 222.333 397.656 220.984C399.034 219.605 400.648 218.564 402.496 217.86C404.373 217.156 406.368 216.804 408.48 216.804C409.917 216.804 411.208 216.907 412.352 217.112C413.525 217.288 414.522 217.508 415.344 217.772C416.194 218.007 416.884 218.256 417.412 218.52C417.969 218.784 418.365 218.989 418.6 219.136L416.62 224.636C415.681 224.137 414.596 223.712 413.364 223.36C412.161 222.979 410.841 222.788 409.404 222.788ZM425.426 217.508H432.29V248H425.426V217.508ZM439.348 248V217.508H459.764V223.272H446.212V229.652H458.268V235.416H446.212V248H439.348ZM496.392 236.384C496.392 238.203 496.128 239.875 495.6 241.4C495.072 242.896 494.309 244.187 493.312 245.272C492.315 246.328 491.112 247.149 489.704 247.736C488.325 248.323 486.771 248.616 485.04 248.616C483.339 248.616 481.784 248.323 480.376 247.736C478.997 247.149 477.809 246.328 476.812 245.272C475.815 244.187 475.037 242.896 474.48 241.4C473.923 239.875 473.644 238.203 473.644 236.384C473.644 234.565 473.923 232.908 474.48 231.412C475.067 229.916 475.859 228.64 476.856 227.584C477.883 226.528 479.085 225.707 480.464 225.12C481.872 224.533 483.397 224.24 485.04 224.24C486.712 224.24 488.237 224.533 489.616 225.12C491.024 225.707 492.227 226.528 493.224 227.584C494.221 228.64 494.999 229.916 495.556 231.412C496.113 232.908 496.392 234.565 496.392 236.384ZM489.704 236.384C489.704 234.36 489.293 232.776 488.472 231.632C487.68 230.459 486.536 229.872 485.04 229.872C483.544 229.872 482.385 230.459 481.564 231.632C480.743 232.776 480.332 234.36 480.332 236.384C480.332 238.408 480.743 240.021 481.564 241.224C482.385 242.397 483.544 242.984 485.04 242.984C486.536 242.984 487.68 242.397 488.472 241.224C489.293 240.021 489.704 238.408 489.704 236.384ZM511.503 213.856C512.735 213.856 513.864 213.988 514.891 214.252C515.917 214.487 516.709 214.721 517.267 214.956L515.991 220.192C515.404 219.928 514.759 219.737 514.055 219.62C513.38 219.473 512.749 219.4 512.163 219.4C511.371 219.4 510.696 219.517 510.139 219.752C509.611 219.957 509.185 220.251 508.863 220.632C508.569 221.013 508.349 221.468 508.203 221.996C508.085 222.524 508.027 223.096 508.027 223.712V224.856H516.123V230.312H508.027V248H501.471V223.624C501.471 220.632 502.307 218.256 503.979 216.496C505.68 214.736 508.188 213.856 511.503 213.856ZM539.447 243.424C540.093 243.424 540.709 243.409 541.295 243.38C541.882 243.351 542.351 243.307 542.703 243.248V238.276C542.439 238.217 542.043 238.159 541.515 238.1C540.987 238.041 540.503 238.012 540.063 238.012C539.447 238.012 538.861 238.056 538.303 238.144C537.775 238.203 537.306 238.335 536.895 238.54C536.485 238.745 536.162 239.024 535.927 239.376C535.693 239.728 535.575 240.168 535.575 240.696C535.575 241.723 535.913 242.441 536.587 242.852C537.291 243.233 538.245 243.424 539.447 243.424ZM538.919 224.24C540.855 224.24 542.469 224.46 543.759 224.9C545.05 225.34 546.077 225.971 546.839 226.792C547.631 227.613 548.189 228.611 548.511 229.784C548.834 230.957 548.995 232.263 548.995 233.7V247.34C548.057 247.545 546.751 247.78 545.079 248.044C543.407 248.337 541.383 248.484 539.007 248.484C537.511 248.484 536.147 248.352 534.915 248.088C533.713 247.824 532.671 247.399 531.791 246.812C530.911 246.196 530.237 245.404 529.767 244.436C529.298 243.468 529.063 242.28 529.063 240.872C529.063 239.523 529.327 238.379 529.855 237.44C530.413 236.501 531.146 235.753 532.055 235.196C532.965 234.639 534.006 234.243 535.179 234.008C536.353 233.744 537.57 233.612 538.831 233.612C539.682 233.612 540.43 233.656 541.075 233.744C541.75 233.803 542.293 233.891 542.703 234.008V233.392C542.703 232.277 542.366 231.383 541.691 230.708C541.017 230.033 539.843 229.696 538.171 229.696C537.057 229.696 535.957 229.784 534.871 229.96C533.786 230.107 532.847 230.327 532.055 230.62L531.219 225.34C531.601 225.223 532.07 225.105 532.627 224.988C533.214 224.841 533.845 224.724 534.519 224.636C535.194 224.519 535.898 224.431 536.631 224.372C537.394 224.284 538.157 224.24 538.919 224.24ZM571.082 236.604C571.082 240.799 572.637 242.896 575.746 242.896C576.421 242.896 577.081 242.808 577.726 242.632C578.401 242.456 578.943 242.236 579.354 241.972V230.136C579.031 230.077 578.621 230.033 578.122 230.004C577.623 229.945 577.081 229.916 576.494 229.916C574.705 229.916 573.355 230.532 572.446 231.764C571.537 232.967 571.082 234.58 571.082 236.604ZM564.394 236.428C564.394 234.639 564.658 233.011 565.186 231.544C565.743 230.048 566.535 228.772 567.562 227.716C568.589 226.631 569.85 225.795 571.346 225.208C572.842 224.621 574.543 224.328 576.45 224.328C577.242 224.328 578.063 224.372 578.914 224.46C579.794 224.519 580.645 224.607 581.466 224.724C582.317 224.841 583.123 224.988 583.886 225.164C584.649 225.311 585.323 225.472 585.91 225.648V256.14H579.354V247.428C578.621 247.751 577.858 248 577.066 248.176C576.274 248.352 575.423 248.44 574.514 248.44C571.229 248.44 568.721 247.369 566.99 245.228C565.259 243.057 564.394 240.124 564.394 236.428ZM611.805 247.208C610.69 247.531 609.253 247.824 607.493 248.088C605.733 248.381 603.885 248.528 601.949 248.528C599.983 248.528 598.341 248.264 597.021 247.736C595.73 247.208 594.703 246.475 593.941 245.536C593.178 244.568 592.635 243.424 592.313 242.104C591.99 240.784 591.829 239.332 591.829 237.748V224.856H598.385V236.956C598.385 239.068 598.663 240.593 599.221 241.532C599.778 242.471 600.819 242.94 602.345 242.94C602.814 242.94 603.313 242.925 603.841 242.896C604.369 242.837 604.838 242.779 605.249 242.72V224.856H611.805V247.208ZM616.859 236.604C616.859 234.551 617.167 232.761 617.783 231.236C618.428 229.681 619.264 228.391 620.291 227.364C621.318 226.337 622.491 225.56 623.811 225.032C625.16 224.504 626.539 224.24 627.947 224.24C631.232 224.24 633.828 225.252 635.735 227.276C637.642 229.271 638.595 232.219 638.595 236.12C638.595 236.501 638.58 236.927 638.551 237.396C638.522 237.836 638.492 238.232 638.463 238.584H623.591C623.738 239.933 624.368 241.004 625.483 241.796C626.598 242.588 628.094 242.984 629.971 242.984C631.174 242.984 632.347 242.881 633.491 242.676C634.664 242.441 635.618 242.163 636.351 241.84L637.231 247.164C636.879 247.34 636.41 247.516 635.823 247.692C635.236 247.868 634.576 248.015 633.843 248.132C633.139 248.279 632.376 248.396 631.555 248.484C630.734 248.572 629.912 248.616 629.091 248.616C627.008 248.616 625.19 248.308 623.635 247.692C622.11 247.076 620.834 246.24 619.807 245.184C618.81 244.099 618.062 242.823 617.563 241.356C617.094 239.889 616.859 238.305 616.859 236.604ZM632.259 234.096C632.23 233.539 632.127 232.996 631.951 232.468C631.804 231.94 631.555 231.471 631.203 231.06C630.88 230.649 630.455 230.312 629.927 230.048C629.428 229.784 628.798 229.652 628.035 229.652C627.302 229.652 626.671 229.784 626.143 230.048C625.615 230.283 625.175 230.605 624.823 231.016C624.471 231.427 624.192 231.911 623.987 232.468C623.811 232.996 623.679 233.539 623.591 234.096H632.259ZM657.602 230.664C657.016 230.517 656.326 230.371 655.534 230.224C654.742 230.048 653.892 229.96 652.982 229.96C652.572 229.96 652.073 230.004 651.486 230.092C650.929 230.151 650.504 230.224 650.21 230.312V248H643.654V226.088C644.828 225.677 646.206 225.296 647.79 224.944C649.404 224.563 651.193 224.372 653.158 224.372C653.51 224.372 653.936 224.401 654.434 224.46C654.933 224.489 655.432 224.548 655.93 224.636C656.429 224.695 656.928 224.783 657.426 224.9C657.925 224.988 658.35 225.105 658.702 225.252L657.602 230.664ZM684.14 224.856C682.82 229.315 681.441 233.495 680.004 237.396C678.566 241.297 676.997 245.081 675.296 248.748C674.68 250.068 674.064 251.183 673.448 252.092C672.832 253.031 672.157 253.793 671.424 254.38C670.69 254.996 669.854 255.436 668.916 255.7C668.006 255.993 666.936 256.14 665.704 256.14C664.677 256.14 663.724 256.037 662.844 255.832C661.993 255.656 661.289 255.451 660.732 255.216L661.876 249.98C662.55 250.215 663.152 250.376 663.68 250.464C664.208 250.552 664.765 250.596 665.352 250.596C666.525 250.596 667.42 250.273 668.036 249.628C668.681 249.012 669.224 248.147 669.664 247.032C668.168 244.099 666.672 240.813 665.176 237.176C663.68 233.509 662.272 229.403 660.952 224.856H667.904C668.197 226 668.534 227.247 668.916 228.596C669.326 229.916 669.752 231.265 670.192 232.644C670.632 233.993 671.072 235.313 671.512 236.604C671.981 237.895 672.421 239.068 672.832 240.124C673.213 239.068 673.609 237.895 674.02 236.604C674.43 235.313 674.826 233.993 675.208 232.644C675.618 231.265 676 229.916 676.352 228.596C676.733 227.247 677.07 226 677.364 224.856H684.14ZM183.924 310.424C184.569 310.424 185.185 310.409 185.772 310.38C186.359 310.351 186.828 310.307 187.18 310.248V305.276C186.916 305.217 186.52 305.159 185.992 305.1C185.464 305.041 184.98 305.012 184.54 305.012C183.924 305.012 183.337 305.056 182.78 305.144C182.252 305.203 181.783 305.335 181.372 305.54C180.961 305.745 180.639 306.024 180.404 306.376C180.169 306.728 180.052 307.168 180.052 307.696C180.052 308.723 180.389 309.441 181.064 309.852C181.768 310.233 182.721 310.424 183.924 310.424ZM183.396 291.24C185.332 291.24 186.945 291.46 188.236 291.9C189.527 292.34 190.553 292.971 191.316 293.792C192.108 294.613 192.665 295.611 192.988 296.784C193.311 297.957 193.472 299.263 193.472 300.7V314.34C192.533 314.545 191.228 314.78 189.556 315.044C187.884 315.337 185.86 315.484 183.484 315.484C181.988 315.484 180.624 315.352 179.392 315.088C178.189 314.824 177.148 314.399 176.268 313.812C175.388 313.196 174.713 312.404 174.244 311.436C173.775 310.468 173.54 309.28 173.54 307.872C173.54 306.523 173.804 305.379 174.332 304.44C174.889 303.501 175.623 302.753 176.532 302.196C177.441 301.639 178.483 301.243 179.656 301.008C180.829 300.744 182.047 300.612 183.308 300.612C184.159 300.612 184.907 300.656 185.552 300.744C186.227 300.803 186.769 300.891 187.18 301.008V300.392C187.18 299.277 186.843 298.383 186.168 297.708C185.493 297.033 184.32 296.696 182.648 296.696C181.533 296.696 180.433 296.784 179.348 296.96C178.263 297.107 177.324 297.327 176.532 297.62L175.696 292.34C176.077 292.223 176.547 292.105 177.104 291.988C177.691 291.841 178.321 291.724 178.996 291.636C179.671 291.519 180.375 291.431 181.108 291.372C181.871 291.284 182.633 291.24 183.396 291.24ZM199.4 292.648C200.515 292.325 201.952 292.032 203.712 291.768C205.472 291.475 207.32 291.328 209.256 291.328C211.222 291.328 212.85 291.592 214.14 292.12C215.46 292.619 216.502 293.337 217.264 294.276C218.027 295.215 218.57 296.329 218.892 297.62C219.215 298.911 219.376 300.348 219.376 301.932V315H212.82V302.724C212.82 300.612 212.542 299.116 211.984 298.236C211.427 297.356 210.386 296.916 208.86 296.916C208.391 296.916 207.892 296.945 207.364 297.004C206.836 297.033 206.367 297.077 205.956 297.136V315H199.4V292.648ZM230.898 303.252C230.898 305.276 231.353 306.904 232.262 308.136C233.172 309.368 234.521 309.984 236.31 309.984C236.897 309.984 237.44 309.969 237.938 309.94C238.437 309.881 238.848 309.823 239.17 309.764V297.84C238.76 297.576 238.217 297.356 237.542 297.18C236.897 297.004 236.237 296.916 235.562 296.916C232.453 296.916 230.898 299.028 230.898 303.252ZM245.726 314.252C245.14 314.428 244.465 314.604 243.702 314.78C242.94 314.927 242.133 315.059 241.282 315.176C240.461 315.293 239.61 315.381 238.73 315.44C237.88 315.528 237.058 315.572 236.266 315.572C234.36 315.572 232.658 315.293 231.162 314.736C229.666 314.179 228.405 313.387 227.378 312.36C226.352 311.304 225.56 310.043 225.002 308.576C224.474 307.08 224.21 305.408 224.21 303.56C224.21 301.683 224.445 299.996 224.914 298.5C225.384 296.975 226.058 295.684 226.938 294.628C227.818 293.572 228.889 292.765 230.15 292.208C231.441 291.651 232.908 291.372 234.55 291.372C235.46 291.372 236.266 291.46 236.97 291.636C237.704 291.812 238.437 292.061 239.17 292.384V281.912L245.726 280.856V314.252ZM276.383 297.664C275.797 297.517 275.107 297.371 274.315 297.224C273.523 297.048 272.673 296.96 271.763 296.96C271.353 296.96 270.854 297.004 270.267 297.092C269.71 297.151 269.285 297.224 268.991 297.312V315H262.435V293.088C263.609 292.677 264.987 292.296 266.571 291.944C268.185 291.563 269.974 291.372 271.939 291.372C272.291 291.372 272.717 291.401 273.215 291.46C273.714 291.489 274.213 291.548 274.711 291.636C275.21 291.695 275.709 291.783 276.207 291.9C276.706 291.988 277.131 292.105 277.483 292.252L276.383 297.664ZM279.468 303.604C279.468 301.551 279.776 299.761 280.392 298.236C281.038 296.681 281.874 295.391 282.9 294.364C283.927 293.337 285.1 292.56 286.42 292.032C287.77 291.504 289.148 291.24 290.556 291.24C293.842 291.24 296.438 292.252 298.344 294.276C300.251 296.271 301.204 299.219 301.204 303.12C301.204 303.501 301.19 303.927 301.16 304.396C301.131 304.836 301.102 305.232 301.072 305.584H286.2C286.347 306.933 286.978 308.004 288.092 308.796C289.207 309.588 290.703 309.984 292.58 309.984C293.783 309.984 294.956 309.881 296.1 309.676C297.274 309.441 298.227 309.163 298.96 308.84L299.84 314.164C299.488 314.34 299.019 314.516 298.432 314.692C297.846 314.868 297.186 315.015 296.452 315.132C295.748 315.279 294.986 315.396 294.164 315.484C293.343 315.572 292.522 315.616 291.7 315.616C289.618 315.616 287.799 315.308 286.244 314.692C284.719 314.076 283.443 313.24 282.416 312.184C281.419 311.099 280.671 309.823 280.172 308.356C279.703 306.889 279.468 305.305 279.468 303.604ZM294.868 301.096C294.839 300.539 294.736 299.996 294.56 299.468C294.414 298.94 294.164 298.471 293.812 298.06C293.49 297.649 293.064 297.312 292.536 297.048C292.038 296.784 291.407 296.652 290.644 296.652C289.911 296.652 289.28 296.784 288.752 297.048C288.224 297.283 287.784 297.605 287.432 298.016C287.08 298.427 286.802 298.911 286.596 299.468C286.42 299.996 286.288 300.539 286.2 301.096H294.868ZM312.908 310.292C314.11 310.292 314.961 310.175 315.46 309.94C315.958 309.705 316.208 309.251 316.208 308.576C316.208 308.048 315.885 307.593 315.24 307.212C314.594 306.801 313.612 306.347 312.292 305.848C311.265 305.467 310.326 305.071 309.476 304.66C308.654 304.249 307.95 303.765 307.364 303.208C306.777 302.621 306.322 301.932 306 301.14C305.677 300.348 305.516 299.395 305.516 298.28C305.516 296.109 306.322 294.393 307.936 293.132C309.549 291.871 311.764 291.24 314.58 291.24C315.988 291.24 317.337 291.372 318.628 291.636C319.918 291.871 320.945 292.135 321.708 292.428L320.564 297.532C319.801 297.268 318.965 297.033 318.056 296.828C317.176 296.623 316.178 296.52 315.064 296.52C313.01 296.52 311.984 297.092 311.984 298.236C311.984 298.5 312.028 298.735 312.116 298.94C312.204 299.145 312.38 299.351 312.644 299.556C312.908 299.732 313.26 299.937 313.7 300.172C314.169 300.377 314.756 300.612 315.46 300.876C316.897 301.404 318.085 301.932 319.024 302.46C319.962 302.959 320.696 303.516 321.224 304.132C321.781 304.719 322.162 305.379 322.368 306.112C322.602 306.845 322.72 307.696 322.72 308.664C322.72 310.952 321.854 312.683 320.124 313.856C318.422 315.029 316.002 315.616 312.864 315.616C310.81 315.616 309.094 315.44 307.716 315.088C306.366 314.736 305.428 314.443 304.9 314.208L306 308.884C307.114 309.324 308.258 309.676 309.432 309.94C310.605 310.175 311.764 310.292 312.908 310.292ZM342.447 303.604C342.447 301.58 341.992 299.967 341.083 298.764C340.174 297.532 338.824 296.916 337.035 296.916C336.448 296.916 335.906 296.945 335.407 297.004C334.908 297.033 334.498 297.077 334.175 297.136V308.972C334.586 309.236 335.114 309.456 335.759 309.632C336.434 309.808 337.108 309.896 337.783 309.896C340.892 309.896 342.447 307.799 342.447 303.604ZM349.135 303.428C349.135 305.217 348.915 306.845 348.475 308.312C348.035 309.779 347.39 311.04 346.539 312.096C345.688 313.152 344.632 313.973 343.371 314.56C342.11 315.147 340.658 315.44 339.015 315.44C338.106 315.44 337.255 315.352 336.463 315.176C335.671 315 334.908 314.751 334.175 314.428V323.14H327.619V292.648C328.206 292.472 328.88 292.311 329.643 292.164C330.406 291.988 331.198 291.841 332.019 291.724C332.87 291.607 333.72 291.519 334.571 291.46C335.451 291.372 336.287 291.328 337.079 291.328C338.986 291.328 340.687 291.621 342.183 292.208C343.679 292.765 344.94 293.572 345.967 294.628C346.994 295.655 347.771 296.916 348.299 298.412C348.856 299.908 349.135 301.58 349.135 303.428ZM375.822 303.384C375.822 305.203 375.558 306.875 375.03 308.4C374.502 309.896 373.739 311.187 372.742 312.272C371.744 313.328 370.542 314.149 369.134 314.736C367.755 315.323 366.2 315.616 364.47 315.616C362.768 315.616 361.214 315.323 359.806 314.736C358.427 314.149 357.239 313.328 356.242 312.272C355.244 311.187 354.467 309.896 353.91 308.4C353.352 306.875 353.074 305.203 353.074 303.384C353.074 301.565 353.352 299.908 353.91 298.412C354.496 296.916 355.288 295.64 356.286 294.584C357.312 293.528 358.515 292.707 359.894 292.12C361.302 291.533 362.827 291.24 364.47 291.24C366.142 291.24 367.667 291.533 369.046 292.12C370.454 292.707 371.656 293.528 372.654 294.584C373.651 295.64 374.428 296.916 374.986 298.412C375.543 299.908 375.822 301.565 375.822 303.384ZM369.134 303.384C369.134 301.36 368.723 299.776 367.902 298.632C367.11 297.459 365.966 296.872 364.47 296.872C362.974 296.872 361.815 297.459 360.994 298.632C360.172 299.776 359.762 301.36 359.762 303.384C359.762 305.408 360.172 307.021 360.994 308.224C361.815 309.397 362.974 309.984 364.47 309.984C365.966 309.984 367.11 309.397 367.902 308.224C368.723 307.021 369.134 305.408 369.134 303.384ZM380.9 292.648C382.015 292.325 383.452 292.032 385.212 291.768C386.972 291.475 388.82 291.328 390.756 291.328C392.722 291.328 394.35 291.592 395.64 292.12C396.96 292.619 398.002 293.337 398.764 294.276C399.527 295.215 400.07 296.329 400.392 297.62C400.715 298.911 400.876 300.348 400.876 301.932V315H394.32V302.724C394.32 300.612 394.042 299.116 393.484 298.236C392.927 297.356 391.886 296.916 390.36 296.916C389.891 296.916 389.392 296.945 388.864 297.004C388.336 297.033 387.867 297.077 387.456 297.136V315H380.9V292.648ZM413.454 310.292C414.657 310.292 415.508 310.175 416.006 309.94C416.505 309.705 416.754 309.251 416.754 308.576C416.754 308.048 416.432 307.593 415.786 307.212C415.141 306.801 414.158 306.347 412.838 305.848C411.812 305.467 410.873 305.071 410.022 304.66C409.201 304.249 408.497 303.765 407.91 303.208C407.324 302.621 406.869 301.932 406.546 301.14C406.224 300.348 406.062 299.395 406.062 298.28C406.062 296.109 406.869 294.393 408.482 293.132C410.096 291.871 412.31 291.24 415.126 291.24C416.534 291.24 417.884 291.372 419.174 291.636C420.465 291.871 421.492 292.135 422.254 292.428L421.11 297.532C420.348 297.268 419.512 297.033 418.602 296.828C417.722 296.623 416.725 296.52 415.61 296.52C413.557 296.52 412.53 297.092 412.53 298.236C412.53 298.5 412.574 298.735 412.662 298.94C412.75 299.145 412.926 299.351 413.19 299.556C413.454 299.732 413.806 299.937 414.246 300.172C414.716 300.377 415.302 300.612 416.006 300.876C417.444 301.404 418.632 301.932 419.57 302.46C420.509 302.959 421.242 303.516 421.77 304.132C422.328 304.719 422.709 305.379 422.914 306.112C423.149 306.845 423.266 307.696 423.266 308.664C423.266 310.952 422.401 312.683 420.67 313.856C418.969 315.029 416.549 315.616 413.41 315.616C411.357 315.616 409.641 315.44 408.262 315.088C406.913 314.736 405.974 314.443 405.446 314.208L406.546 308.884C407.661 309.324 408.805 309.676 409.978 309.94C411.152 310.175 412.31 310.292 413.454 310.292ZM427.066 303.604C427.066 301.551 427.374 299.761 427.99 298.236C428.635 296.681 429.471 295.391 430.498 294.364C431.525 293.337 432.698 292.56 434.018 292.032C435.367 291.504 436.746 291.24 438.154 291.24C441.439 291.24 444.035 292.252 445.942 294.276C447.849 296.271 448.802 299.219 448.802 303.12C448.802 303.501 448.787 303.927 448.758 304.396C448.729 304.836 448.699 305.232 448.67 305.584H433.798C433.945 306.933 434.575 308.004 435.69 308.796C436.805 309.588 438.301 309.984 440.178 309.984C441.381 309.984 442.554 309.881 443.698 309.676C444.871 309.441 445.825 309.163 446.558 308.84L447.438 314.164C447.086 314.34 446.617 314.516 446.03 314.692C445.443 314.868 444.783 315.015 444.05 315.132C443.346 315.279 442.583 315.396 441.762 315.484C440.941 315.572 440.119 315.616 439.298 315.616C437.215 315.616 435.397 315.308 433.842 314.692C432.317 314.076 431.041 313.24 430.014 312.184C429.017 311.099 428.269 309.823 427.77 308.356C427.301 306.889 427.066 305.305 427.066 303.604ZM442.466 301.096C442.437 300.539 442.334 299.996 442.158 299.468C442.011 298.94 441.762 298.471 441.41 298.06C441.087 297.649 440.662 297.312 440.134 297.048C439.635 296.784 439.005 296.652 438.242 296.652C437.509 296.652 436.878 296.784 436.35 297.048C435.822 297.283 435.382 297.605 435.03 298.016C434.678 298.427 434.399 298.911 434.194 299.468C434.018 299.996 433.886 300.539 433.798 301.096H442.466ZM464.212 286.092L470.768 285.036V291.856H478.644V297.312H470.768V305.452C470.768 306.831 471.002 307.931 471.472 308.752C471.97 309.573 472.953 309.984 474.42 309.984C475.124 309.984 475.842 309.925 476.576 309.808C477.338 309.661 478.028 309.471 478.644 309.236L479.568 314.34C478.776 314.663 477.896 314.941 476.928 315.176C475.96 315.411 474.772 315.528 473.364 315.528C471.574 315.528 470.093 315.293 468.92 314.824C467.746 314.325 466.808 313.651 466.104 312.8C465.4 311.92 464.901 310.864 464.608 309.632C464.344 308.4 464.212 307.036 464.212 305.54V286.092ZM504.96 291.856C503.64 296.315 502.261 300.495 500.824 304.396C499.387 308.297 497.817 312.081 496.116 315.748C495.5 317.068 494.884 318.183 494.268 319.092C493.652 320.031 492.977 320.793 492.244 321.38C491.511 321.996 490.675 322.436 489.736 322.7C488.827 322.993 487.756 323.14 486.524 323.14C485.497 323.14 484.544 323.037 483.664 322.832C482.813 322.656 482.109 322.451 481.552 322.216L482.696 316.98C483.371 317.215 483.972 317.376 484.5 317.464C485.028 317.552 485.585 317.596 486.172 317.596C487.345 317.596 488.24 317.273 488.856 316.628C489.501 316.012 490.044 315.147 490.484 314.032C488.988 311.099 487.492 307.813 485.996 304.176C484.5 300.509 483.092 296.403 481.772 291.856H488.724C489.017 293 489.355 294.247 489.736 295.596C490.147 296.916 490.572 298.265 491.012 299.644C491.452 300.993 491.892 302.313 492.332 303.604C492.801 304.895 493.241 306.068 493.652 307.124C494.033 306.068 494.429 304.895 494.84 303.604C495.251 302.313 495.647 300.993 496.028 299.644C496.439 298.265 496.82 296.916 497.172 295.596C497.553 294.247 497.891 293 498.184 291.856H504.96ZM523.303 303.604C523.303 301.58 522.848 299.967 521.939 298.764C521.029 297.532 519.68 296.916 517.891 296.916C517.304 296.916 516.761 296.945 516.263 297.004C515.764 297.033 515.353 297.077 515.031 297.136V308.972C515.441 309.236 515.969 309.456 516.615 309.632C517.289 309.808 517.964 309.896 518.639 309.896C521.748 309.896 523.303 307.799 523.303 303.604ZM529.991 303.428C529.991 305.217 529.771 306.845 529.331 308.312C528.891 309.779 528.245 311.04 527.395 312.096C526.544 313.152 525.488 313.973 524.227 314.56C522.965 315.147 521.513 315.44 519.871 315.44C518.961 315.44 518.111 315.352 517.319 315.176C516.527 315 515.764 314.751 515.031 314.428V323.14H508.475V292.648C509.061 292.472 509.736 292.311 510.499 292.164C511.261 291.988 512.053 291.841 512.875 291.724C513.725 291.607 514.576 291.519 515.427 291.46C516.307 291.372 517.143 291.328 517.935 291.328C519.841 291.328 521.543 291.621 523.039 292.208C524.535 292.765 525.796 293.572 526.823 294.628C527.849 295.655 528.627 296.916 529.155 298.412C529.712 299.908 529.991 301.58 529.991 303.428ZM541.585 315H535.029V291.856H541.585V315ZM542.201 285.168C542.201 286.371 541.805 287.324 541.013 288.028C540.251 288.703 539.341 289.04 538.285 289.04C537.229 289.04 536.305 288.703 535.513 288.028C534.751 287.324 534.369 286.371 534.369 285.168C534.369 283.965 534.751 283.027 535.513 282.352C536.305 281.648 537.229 281.296 538.285 281.296C539.341 281.296 540.251 281.648 541.013 282.352C541.805 283.027 542.201 283.965 542.201 285.168ZM547.748 292.648C548.863 292.325 550.3 292.032 552.06 291.768C553.82 291.475 555.668 291.328 557.604 291.328C559.569 291.328 561.197 291.592 562.488 292.12C563.808 292.619 564.849 293.337 565.612 294.276C566.375 295.215 566.917 296.329 567.24 297.62C567.563 298.911 567.724 300.348 567.724 301.932V315H561.168V302.724C561.168 300.612 560.889 299.116 560.332 298.236C559.775 297.356 558.733 296.916 557.208 296.916C556.739 296.916 556.24 296.945 555.712 297.004C555.184 297.033 554.715 297.077 554.304 297.136V315H547.748V292.648ZM579.246 302.68C579.246 306.347 580.727 308.18 583.69 308.18C584.365 308.18 584.995 308.092 585.582 307.916C586.169 307.74 586.667 307.535 587.078 307.3V296.828C586.755 296.769 586.374 296.725 585.934 296.696C585.494 296.637 584.981 296.608 584.394 296.608C582.663 296.608 581.373 297.18 580.522 298.324C579.671 299.468 579.246 300.92 579.246 302.68ZM593.634 312.096C593.634 315.88 592.666 318.681 590.73 320.5C588.823 322.348 585.861 323.272 581.842 323.272C580.434 323.272 579.026 323.14 577.618 322.876C576.21 322.641 574.905 322.319 573.702 321.908L574.846 316.408C575.873 316.819 576.943 317.141 578.058 317.376C579.202 317.611 580.493 317.728 581.93 317.728C583.807 317.728 585.127 317.317 585.89 316.496C586.682 315.675 587.078 314.619 587.078 313.328V312.492C586.374 312.815 585.641 313.064 584.878 313.24C584.145 313.387 583.338 313.46 582.458 313.46C579.261 313.46 576.811 312.521 575.11 310.644C573.409 308.737 572.558 306.083 572.558 302.68C572.558 300.979 572.822 299.439 573.35 298.06C573.878 296.652 574.641 295.449 575.638 294.452C576.665 293.455 577.911 292.692 579.378 292.164C580.845 291.607 582.502 291.328 584.35 291.328C585.142 291.328 585.949 291.372 586.77 291.46C587.621 291.519 588.457 291.607 589.278 291.724C590.099 291.841 590.877 291.988 591.61 292.164C592.373 292.311 593.047 292.472 593.634 292.648V312.096ZM632.001 303.384C632.001 305.203 631.737 306.875 631.209 308.4C630.681 309.896 629.919 311.187 628.921 312.272C627.924 313.328 626.721 314.149 625.313 314.736C623.935 315.323 622.38 315.616 620.649 315.616C618.948 315.616 617.393 315.323 615.985 314.736C614.607 314.149 613.419 313.328 612.421 312.272C611.424 311.187 610.647 309.896 610.089 308.4C609.532 306.875 609.253 305.203 609.253 303.384C609.253 301.565 609.532 299.908 610.089 298.412C610.676 296.916 611.468 295.64 612.465 294.584C613.492 293.528 614.695 292.707 616.073 292.12C617.481 291.533 619.007 291.24 620.649 291.24C622.321 291.24 623.847 291.533 625.225 292.12C626.633 292.707 627.836 293.528 628.833 294.584C629.831 295.64 630.608 296.916 631.165 298.412C631.723 299.908 632.001 301.565 632.001 303.384ZM625.313 303.384C625.313 301.36 624.903 299.776 624.081 298.632C623.289 297.459 622.145 296.872 620.649 296.872C619.153 296.872 617.995 297.459 617.173 298.632C616.352 299.776 615.941 301.36 615.941 303.384C615.941 305.408 616.352 307.021 617.173 308.224C617.995 309.397 619.153 309.984 620.649 309.984C622.145 309.984 623.289 309.397 624.081 308.224C624.903 307.021 625.313 305.408 625.313 303.384ZM656.836 314.208C655.721 314.531 654.284 314.824 652.524 315.088C650.764 315.381 648.916 315.528 646.98 315.528C645.015 315.528 643.372 315.264 642.052 314.736C640.761 314.208 639.735 313.475 638.972 312.536C638.209 311.568 637.667 310.424 637.344 309.104C637.021 307.784 636.86 306.332 636.86 304.748V291.856H643.416V303.956C643.416 306.068 643.695 307.593 644.252 308.532C644.809 309.471 645.851 309.94 647.376 309.94C647.845 309.94 648.344 309.925 648.872 309.896C649.4 309.837 649.869 309.779 650.28 309.72V291.856H656.836V314.208ZM662.77 286.092L669.326 285.036V291.856H677.202V297.312H669.326V305.452C669.326 306.831 669.561 307.931 670.03 308.752C670.529 309.573 671.511 309.984 672.978 309.984C673.682 309.984 674.401 309.925 675.134 309.808C675.897 309.661 676.586 309.471 677.202 309.236L678.126 314.34C677.334 314.663 676.454 314.941 675.486 315.176C674.518 315.411 673.33 315.528 671.922 315.528C670.133 315.528 668.651 315.293 667.478 314.824C666.305 314.325 665.366 313.651 664.662 312.8C663.958 311.92 663.459 310.864 663.166 309.632C662.902 308.4 662.77 307.036 662.77 305.54V286.092Z" fill="#0A121F"/>
<line y1="-0.5" x2="51.0714" y2="-0.5" transform="matrix(0 1 1 0 698 283.25)" stroke="#1E5DEB"/>
<ellipse cx="8" cy="8.125" rx="8" ry="8.125" transform="matrix(-1 0 0 1 706 267)" fill="#1E5DEB"/>
</svg>
