
<svg width="501" height="418" viewBox="0 0 501 418" fill="none" xmlns="http://www.w3.org/2000/svg">
<rect width="501" height="417.822" rx="32" fill="#A3CEFF"/>
<path d="M0 31C0 13.8792 13.8792 0 31 0H470C487.121 0 501 13.8792 501 31V86H0V31Z" fill="#CEE5FF"/>
<circle cx="46.5" cy="43.5" r="8.5" fill="#1E5DEB"/>
<circle cx="75.5" cy="43.5" r="8.5" fill="#1E5DEB"/>
<circle cx="104.5" cy="43.5" r="8.5" fill="#1E5DEB"/>
<line y1="169.5" x2="500.004" y2="169.5" stroke="#CEE5FF" stroke-dasharray="4 4"/>
<line y1="232.5" x2="500.004" y2="232.5" stroke="#CEE5FF" stroke-dasharray="4 4"/>
<line y1="295.5" x2="500.004" y2="295.5" stroke="#CEE5FF" stroke-dasharray="4 4"/>
<rect x="42" y="123" width="416" height="256" rx="22" fill="white"/>
<path d="M219.956 214.862H235.404V225.471H219.956V214.862Z" fill="#1E5DEB"/>
<path d="M228.303 184.98V280.351" stroke="#1E5DEB" stroke-width="2"/>
<path d="M51 318.057H65.4819V320.95H51V318.057Z" fill="#1E5DEB"/>
<path d="M57.9424 288.505L58.0909 378" stroke="#1E5DEB" stroke-width="2"/>
<path d="M135.961 265.013H151.408V274.657H135.961V265.013Z" fill="#1E5DEB"/>
<path d="M143.123 234.616V329.987" stroke="#1E5DEB" stroke-width="2"/>
<path d="M369.603 191.716H385.05V207.147H369.603V191.716Z" fill="#1E5DEB"/>
<path d="M377.367 186.399V272.907" stroke="#1E5DEB" stroke-width="2"/>
<path d="M156.609 242.061H172.226V277.515H156.609V242.061Z" fill="#1E5DEB"/>
<path d="M164.418 221.852V297.015" stroke="#1E5DEB" stroke-width="2"/>
<path d="M114.02 265.929H129.636V301.382H114.02V265.929Z" fill="#1E5DEB"/>
<path d="M121.829 259.433V307.65" stroke="#1E5DEB" stroke-width="2"/>
<path d="M92.7244 273.02H108.341V308.474H92.7244V273.02Z" fill="#1E5DEB"/>
<path d="M100.533 233.198V314.742" stroke="#1E5DEB" stroke-width="2"/>
<path d="M71.429 299.256H87.0454V334.709H71.429V299.256Z" fill="#1E5DEB"/>
<path d="M79.2378 259.433V340.977" stroke="#1E5DEB" stroke-width="2"/>
<path d="M242.162 199.431H258.575V214.862H242.162V199.431Z" fill="#1E5DEB"/>
<path d="M249.598 193.489V227.525" stroke="#1E5DEB" stroke-width="2"/>
<path d="M199.2 222.03H214.816V239.047H199.2V222.03Z" fill="#1E5DEB"/>
<path d="M207.008 184.98V277.16" stroke="#1E5DEB" stroke-width="2"/>
<path d="M348.363 214.862H364.775V222.578H348.363V214.862Z" fill="#1E5DEB"/>
<path d="M356.073 124V243.125" stroke="#1E5DEB" stroke-width="2"/>
<path d="M390.855 187.699H406.471V190.535H390.855V187.699Z" fill="#1E5DEB"/>
<path d="M398.664 188.408V250.924" stroke="#1E5DEB" stroke-width="2"/>
<path d="M263.085 175.849H278.701V183.881H263.085V175.849Z" fill="#1E5DEB"/>
<path d="M270.894 177.856V216.181" stroke="#1E5DEB" stroke-width="2"/>
<path d="M326.969 218.16H342.585V225.25H326.969V218.16Z" fill="#1E5DEB"/>
<path d="M334.778 213.698V265.165" stroke="#1E5DEB" stroke-width="2"/>
<path d="M177.905 234.91H193.521V242H177.905V234.91Z" fill="#1E5DEB"/>
<path d="M185.713 246.463V194.996" stroke="#1E5DEB" stroke-width="2"/>
<path d="M305.675 218.16H321.291V245.105H305.675V218.16Z" fill="#1E5DEB"/>
<path d="M313.483 213.698V243.125" stroke="#1E5DEB" stroke-width="2"/>
<path d="M284.38 202.915H299.996V220.73H284.38V202.915Z" fill="#1E5DEB"/>
<path d="M292.188 198.453V218.75" stroke="#1E5DEB" stroke-width="2"/>
<path d="M412.083 195.573H428.496V203.289H412.083V195.573Z" fill="#1E5DEB"/>
<path d="M419.958 187.699V213.698" stroke="#1E5DEB" stroke-width="2"/>
<path d="M432.357 188.823H448.77V210.04H432.357V188.823Z" fill="#1E5DEB"/>
<path d="M441.252 155.081V297.015" stroke="#1E5DEB" stroke-width="2"/>
</svg>
