<svg width="148" height="68" viewBox="0 0 148 68" fill="none" xmlns="http://www.w3.org/2000/svg">
<path fill-rule="evenodd" clip-rule="evenodd" d="M139.353 48.2632L125.306 0.948883H140.24L146.598 48.2632H139.353ZM122.941 48.2632H105.937L98.9877 37.6175L92.1863 48.2632H75.4784L90.8556 23.2753L76.5134 0.948883H93.2213L99.4313 11.0032L104.754 0.948883H121.758L107.12 23.571L122.941 48.2632ZM57.4399 48.1153C43.0977 48.1153 31.417 37.6175 31.417 24.4582C31.417 11.4467 43.0977 0.801025 57.4399 0.801025C71.782 0.801025 83.4627 11.2989 83.4627 24.4582C83.6106 37.6175 71.9299 48.1153 57.4399 48.1153ZM62.1713 13.9603C62.1713 13.9603 62.3191 10.5596 57.5877 10.5596C53.0041 10.5596 53.2999 13.9603 53.2999 13.9603V35.5475C53.2999 35.5475 53.152 37.9132 57.4399 37.9132C61.7277 37.9132 62.1713 36.1389 62.1713 33.7732V13.9603ZM15.0049 20.1703H29.7906V33.4775H15.0049V48.2632H0.0712891V0.948883H31.7127L31.8606 14.256H15.0049V20.1703ZM18.4056 52.551C19.1449 53.2903 19.4406 54.3253 19.4406 55.5082C19.4406 56.9867 18.8491 58.0217 17.8141 58.9089C19.1449 59.6482 19.7363 60.831 19.7363 62.4574C19.7363 63.6403 19.2927 64.6753 18.5534 65.4146C17.8141 66.4496 16.7791 67.4846 15.4484 67.4846H0.0712891V51.2203H15.0049C16.4834 51.2203 17.5184 51.6639 18.4056 52.551ZM3.76772 63.1967H15.3006C15.892 63.1967 16.0399 62.7532 16.0399 62.0139C16.0399 61.2746 15.7441 60.831 15.3006 60.831H3.76772V63.1967ZM3.76772 57.2824H15.0049C15.5963 57.2824 15.7441 56.8389 15.7441 56.0996C15.7441 55.3603 15.4484 54.9167 15.0049 54.9167H3.76772V57.2824ZM25.5027 62.0139C25.5027 62.7532 25.7984 63.1967 26.242 63.1967H36.592C37.0356 63.1967 37.3313 62.7532 37.3313 62.0139V51.2203H41.0277V62.0139C41.0277 63.3446 40.5841 64.5275 39.8449 65.4146C38.9577 66.3017 37.9227 67.4846 36.592 67.4846H26.242C24.9113 67.4846 23.8763 66.3017 22.9891 65.4146C22.102 64.5275 21.8063 63.3446 21.8063 62.0139V51.2203H25.5027V62.0139ZM57.7356 60.831H47.8291C46.4984 60.831 45.4634 60.3875 44.5763 59.3525C43.6891 58.4653 43.3934 57.2825 43.3934 55.9517C43.3934 54.621 43.837 53.4382 44.5763 52.551C45.4634 51.6639 46.4984 51.0725 47.8291 51.0725H61.432V54.7689H47.8291C47.3856 54.7689 47.0899 55.2125 47.0899 55.9517C47.0899 56.691 47.3856 57.1346 47.8291 57.1346H57.7356C59.0663 57.1346 60.1013 57.5782 60.9884 58.6132C61.7277 59.5003 62.1713 60.6832 62.1713 62.0139C62.1713 63.3446 61.7277 64.3796 60.9884 65.4146C60.1013 66.3017 59.0663 67.4846 57.7356 67.4846H44.1327V63.1967H57.7356C58.1791 63.1967 58.4749 62.7532 58.4749 62.0139C58.4749 61.2746 58.327 60.831 57.7356 60.831ZM67.7899 67.4846H64.0934V51.2203H67.7899V67.4846ZM83.3149 61.7182V51.2203H87.0113V67.4846H83.3149L73.852 56.3953V67.4846H70.1556V51.2203H73.852L83.3149 61.7182ZM106.085 54.9167H92.9256V57.2824H105.198V60.9789H92.9256V63.3446H105.937V67.4846H89.2291V51.2203H105.937V54.9167H106.085ZM122.793 60.831H112.886C111.556 60.831 110.521 60.3875 109.633 59.3525C108.746 58.4653 108.451 57.2825 108.451 55.9517C108.451 54.621 108.894 53.4382 109.633 52.551C110.521 51.6639 111.556 51.0725 112.886 51.0725H126.489V54.7689H112.886C112.443 54.7689 112.147 55.2125 112.147 55.9517C112.147 56.691 112.443 57.1346 112.886 57.1346H122.793C124.123 57.1346 125.158 57.5782 126.046 58.6132C126.785 59.5003 127.228 60.6832 127.228 62.0139C127.228 63.3446 126.785 64.3796 126.046 65.4146C125.158 66.3017 124.123 67.4846 122.793 67.4846H109.19V63.1967H122.793C123.236 63.1967 123.532 62.7532 123.532 62.0139C123.532 61.2746 123.236 60.831 122.793 60.831ZM143.493 60.831H133.586C132.256 60.831 131.221 60.3875 130.333 59.3525C129.446 58.4653 129.151 57.2825 129.151 55.9517C129.151 54.621 129.594 53.4382 130.333 52.551C131.221 51.6639 132.256 51.0725 133.586 51.0725H147.189V54.7689H133.586C133.143 54.7689 132.847 55.2125 132.847 55.9517C132.847 56.691 133.143 57.1346 133.586 57.1346H143.493C144.823 57.1346 145.858 57.5782 146.746 58.6132C147.485 59.5003 147.928 60.6832 147.928 62.0139C147.928 63.3446 147.485 64.3796 146.746 65.4146C145.858 66.3017 144.823 67.4846 143.493 67.4846H129.89V63.1967H143.493C143.936 63.1967 144.232 62.7532 144.232 62.0139C144.232 61.2746 143.936 60.831 143.493 60.831ZM121.758 7.60245L136.691 48.2632H127.228L111.26 23.1275L121.758 7.60245Z" fill="black"/>
</svg>
